<?xml version="1.0" encoding="utf-8"?>
<!-- Generator: Adobe Illustrator 14.0.0, SVG Export Plug-In . SVG Version: 6.00 Build 43363)  -->
<!DOCTYPE svg PUBLIC "-//W3C//DTD SVG 1.1//EN" "http://www.w3.org/Graphics/SVG/1.1/DTD/svg11.dtd">
<svg version="1.1" id="Layer_1" xmlns="http://www.w3.org/2000/svg" xmlns:xlink="http://www.w3.org/1999/xlink" x="0px" y="0px"
	 width="150px" height="60px" viewBox="0 0 150 60" enable-background="new 0 0 150 60" xml:space="preserve">
<path stroke="#000000" d="M39.374,2.816c0.255-0.028,0.488-0.042,0.698-0.042c0.333,0,0.614,0.035,0.848,0.104
	c0.233,0.069,0.436,0.178,0.608,0.33c0.172,0.149,0.326,0.343,0.459,0.581c0.134,0.238,0.266,0.523,0.393,0.855
	c0.504,1.295,1.104,3.497,1.801,6.604c0.695,3.107,1.538,7.142,2.527,12.104l0.201,0.028l1.57-0.122
	c0.881-1.54,1.715-3.043,2.504-4.511c0.788-1.467,1.514-2.869,2.178-4.205c0.664-1.336,1.262-2.592,1.795-3.769
	c0.533-1.177,0.985-2.244,1.354-3.202c0.371-0.958,0.655-1.792,0.853-2.506c0.198-0.714,0.297-1.273,0.297-1.68
	c0-0.457-0.078-0.839-0.234-1.146c-0.157-0.306-0.359-0.55-0.608-0.732c-0.249-0.181-0.531-0.312-0.847-0.389
	C55.454,1.039,55.133,1,54.807,1c-0.134,0-0.265,0.006-0.392,0.019c-0.128,0.012-0.252,0.027-0.374,0.046l-0.077,0.169
	c0.887,0.751,1.331,1.787,1.331,3.108c0,0.52-0.083,1.131-0.249,1.835c-0.167,0.704-0.399,1.481-0.699,2.333
	c-0.3,0.851-0.657,1.763-1.072,2.737c-0.415,0.973-0.872,1.987-1.369,3.042c-0.498,1.054-1.03,2.139-1.594,3.251
	c-0.565,1.114-1.145,2.234-1.738,3.361h-0.058c-0.396-2.278-0.774-4.318-1.135-6.121c-0.36-1.802-0.702-3.403-1.024-4.802
	c-0.323-1.398-0.625-2.612-0.905-3.642c-0.28-1.03-0.539-1.911-0.776-2.643c-0.134-0.414-0.26-0.769-0.378-1.065
	c-0.119-0.297-0.252-0.542-0.402-0.732c-0.15-0.191-0.33-0.332-0.541-0.423c-0.21-0.09-0.479-0.136-0.804-0.136
	c-0.454,0-1.013,0.065-1.675,0.198c-0.665,0.131-1.491,0.318-2.48,0.563l0.106,0.835C38.828,2.884,39.118,2.845,39.374,2.816z"/>
<path stroke="#000000" d="M56.588,17.597c0,0.82,0.129,1.589,0.387,2.305c0.259,0.716,0.618,1.34,1.078,1.873
	c0.459,0.531,1.008,0.951,1.646,1.257c0.639,0.306,1.34,0.46,2.107,0.46c0.447,0,0.9-0.059,1.359-0.175
	c0.46-0.115,0.912-0.294,1.355-0.534c0.444-0.242,0.872-0.542,1.283-0.901c0.411-0.359,0.796-0.784,1.153-1.272
	c0.019-0.025,0.029-0.049,0.029-0.074c0-0.045-0.019-0.09-0.058-0.137c-0.038-0.047-0.083-0.09-0.133-0.131
	c-0.051-0.04-0.107-0.078-0.168-0.113c-0.061-0.034-0.11-0.061-0.148-0.08c-0.619,0.625-1.23,1.078-1.833,1.356
	c-0.603,0.279-1.192,0.418-1.767,0.418c-0.568,0-1.098-0.131-1.59-0.394c-0.491-0.263-0.919-0.631-1.282-1.104
	c-0.364-0.473-0.649-1.041-0.857-1.704c-0.207-0.664-0.311-1.396-0.311-2.197v-0.159c1.175-0.1,2.268-0.252,3.279-0.455
	c1.012-0.204,1.892-0.471,2.639-0.803c0.747-0.332,1.332-0.735,1.757-1.211c0.424-0.476,0.636-1.032,0.636-1.671
	c0-0.438-0.095-0.83-0.287-1.174c-0.191-0.344-0.448-0.633-0.771-0.868c-0.323-0.234-0.697-0.414-1.125-0.54
	c-0.428-0.126-0.877-0.188-1.35-0.188c-0.715,0-1.384,0.109-2.007,0.329c-0.622,0.219-1.192,0.521-1.713,0.906
	c-0.52,0.385-0.985,0.839-1.393,1.361s-0.755,1.087-1.039,1.695c-0.284,0.606-0.501,1.245-0.651,1.915
	C56.664,16.257,56.588,16.928,56.588,17.597z M59.087,14.331c0.089-0.388,0.206-0.767,0.35-1.137
	c0.144-0.368,0.317-0.718,0.521-1.046c0.205-0.329,0.44-0.617,0.708-0.864c0.269-0.248,0.571-0.443,0.91-0.587
	c0.338-0.143,0.715-0.215,1.13-0.215c0.28,0,0.542,0.053,0.785,0.159c0.242,0.107,0.451,0.252,0.627,0.438
	c0.175,0.185,0.313,0.401,0.411,0.652c0.099,0.25,0.148,0.52,0.148,0.808c0,0.431-0.131,0.815-0.392,1.15
	c-0.261,0.334-0.64,0.623-1.135,0.863c-0.495,0.242-1.101,0.438-1.819,0.592c-0.718,0.153-1.53,0.262-2.436,0.324
	C58.934,15.097,58.998,14.718,59.087,14.331z"/>
<path stroke="#000000" d="M72.673,20.207c0.198-0.927,0.447-1.813,0.746-2.662c0.3-0.847,0.637-1.637,1.011-2.366
	c0.373-0.729,0.762-1.362,1.168-1.897c0.405-0.534,0.812-0.955,1.221-1.262c0.408-0.307,0.798-0.46,1.168-0.46
	c0.465,0,0.838,0.174,1.12,0.521c0.281,0.348,0.421,0.887,0.421,1.62c0,0.275-0.021,0.644-0.063,1.103s-0.087,0.971-0.138,1.536
	c-0.052,0.563-0.098,1.155-0.14,1.778c-0.042,0.624-0.062,1.229-0.062,1.817c0,0.482,0.014,0.932,0.042,1.351
	s0.092,0.786,0.191,1.099c0.099,0.313,0.247,0.56,0.445,0.741c0.198,0.182,0.469,0.271,0.814,0.271c0.293,0,0.632-0.048,1.015-0.145
	c0.383-0.096,0.767-0.223,1.153-0.38c0.387-0.156,0.755-0.329,1.107-0.516c0.351-0.188,0.641-0.372,0.871-0.554l-0.182-0.488
	c-0.364,0.162-0.725,0.289-1.081,0.38c-0.359,0.091-0.703,0.137-1.035,0.137c-0.23,0-0.425-0.033-0.584-0.099
	c-0.16-0.065-0.288-0.188-0.383-0.366c-0.097-0.178-0.166-0.421-0.207-0.728c-0.042-0.306-0.062-0.704-0.062-1.192
	c0-0.281,0.011-0.612,0.034-0.99c0.021-0.378,0.049-0.777,0.082-1.196c0.031-0.419,0.068-0.847,0.11-1.283
	c0.042-0.434,0.078-0.846,0.11-1.234c0.031-0.388,0.059-0.74,0.081-1.056c0.022-0.316,0.034-0.568,0.034-0.756
	c0-0.644-0.077-1.194-0.229-1.647c-0.154-0.454-0.36-0.825-0.619-1.112c-0.259-0.288-0.553-0.498-0.885-0.629
	c-0.333-0.131-0.678-0.198-1.034-0.198c-0.517,0-1.06,0.153-1.628,0.46c-0.568,0.307-1.139,0.806-1.714,1.498
	c-0.574,0.691-1.139,1.593-1.694,2.703c-0.555,1.111-1.076,2.474-1.561,4.089l-0.058-0.01c0.058-0.545,0.112-1.09,0.163-1.638
	c0.051-0.547,0.098-1.078,0.139-1.591c0.042-0.513,0.078-0.997,0.11-1.45c0.032-0.454,0.059-0.856,0.082-1.207
	c0.022-0.35,0.04-0.639,0.053-0.868s0.019-0.374,0.019-0.437c0-0.526-0.103-0.896-0.311-1.112c-0.208-0.216-0.496-0.324-0.866-0.324
	c-0.154,0-0.364,0.025-0.632,0.075c-0.269,0.05-0.578,0.121-0.929,0.215c-0.351,0.095-0.736,0.205-1.154,0.333
	c-0.418,0.129-0.854,0.271-1.307,0.428l0.144,0.676c0.409-0.107,0.772-0.192,1.091-0.254c0.32-0.063,0.594-0.093,0.824-0.093
	c0.167,0,0.31,0.022,0.43,0.065c0.123,0.044,0.223,0.118,0.302,0.221c0.08,0.104,0.139,0.243,0.177,0.418
	c0.039,0.175,0.057,0.391,0.057,0.647c0,0.282-0.004,0.667-0.015,1.155c-0.009,0.488-0.025,1.041-0.047,1.658
	c-0.022,0.616-0.048,1.279-0.077,1.99c-0.028,0.71-0.063,1.426-0.101,2.15c-0.038,0.722-0.079,1.434-0.125,2.134
	c-0.044,0.702-0.092,1.349-0.144,1.943l0.154,0.01l2.001-0.244C72.351,22.059,72.475,21.133,72.673,20.207z"/>
<path stroke="#000000" d="M85.843,11.105c0.431-0.034,0.899-0.054,1.402-0.061c-0.063,0.601-0.12,1.211-0.172,1.831
	c-0.051,0.62-0.092,1.239-0.125,1.859c-0.031,0.621-0.057,1.232-0.076,1.836c-0.019,0.604-0.029,1.19-0.029,1.76
	c0,1.014,0.072,1.852,0.215,2.516c0.144,0.663,0.346,1.191,0.604,1.582c0.258,0.392,0.564,0.663,0.919,0.816
	c0.353,0.153,0.745,0.23,1.172,0.23c0.326,0,0.67-0.041,1.034-0.123c0.364-0.081,0.74-0.197,1.13-0.347
	c0.39-0.15,0.785-0.33,1.188-0.54c0.402-0.209,0.801-0.442,1.196-0.699c-0.025-0.244-0.124-0.451-0.296-0.62
	c-0.542,0.263-1.026,0.453-1.451,0.572c-0.424,0.12-0.809,0.179-1.153,0.179c-0.479,0-0.875-0.098-1.188-0.292
	c-0.313-0.194-0.559-0.474-0.736-0.84c-0.179-0.366-0.303-0.812-0.374-1.338c-0.071-0.525-0.106-1.123-0.106-1.792
	c0-0.357,0.007-0.777,0.02-1.258c0.013-0.483,0.033-1.005,0.062-1.568c0.029-0.563,0.067-1.163,0.115-1.797
	c0.048-0.636,0.108-1.289,0.177-1.958c0.619,0.043,1.189,0.09,1.709,0.141c0.521,0.05,0.991,0.075,1.413,0.075
	c0.44,0,0.777-0.04,1.01-0.121c0.233-0.082,0.35-0.26,0.35-0.536c0-0.075-0.009-0.157-0.028-0.245
	c-0.02-0.087-0.044-0.185-0.077-0.291c-0.37,0.07-0.846,0.104-1.426,0.104c-0.134,0-0.302,0-0.502,0
	c-0.202,0-0.425-0.003-0.67-0.009c-0.246-0.007-0.511-0.013-0.794-0.019c-0.284-0.006-0.576-0.017-0.876-0.029
	c0.127-1.233,0.282-2.483,0.464-3.75s0.406-2.495,0.675-3.684c-0.147-0.082-0.305-0.144-0.474-0.188
	c-0.169-0.043-0.359-0.066-0.57-0.066c-0.128,0-0.258,0.012-0.392,0.038c-0.134,0.026-0.259,0.069-0.374,0.131
	c-0.115,0.063-0.216,0.147-0.302,0.253C88.419,2.965,88.36,3.1,88.328,3.262c-0.166,0.915-0.332,1.954-0.498,3.117
	c-0.166,1.165-0.322,2.4-0.469,3.709c-0.39,0.024-0.747,0.068-1.073,0.131c-0.325,0.063-0.604,0.142-0.837,0.235
	s-0.415,0.198-0.546,0.314c-0.131,0.116-0.196,0.239-0.196,0.371c0,0.05,0.009,0.094,0.029,0.131
	C85.044,11.195,85.413,11.14,85.843,11.105z"/>
<path stroke="#000000" d="M96.203,21.648c0.424,0.554,0.951,0.999,1.58,1.337c0.628,0.338,1.352,0.507,2.168,0.507
	c0.728,0,1.401-0.117,2.021-0.348c0.619-0.231,1.181-0.547,1.685-0.947c0.503-0.401,0.949-0.87,1.335-1.404
	c0.387-0.535,0.712-1.108,0.977-1.718c0.265-0.611,0.464-1.24,0.599-1.892c0.134-0.651,0.201-1.292,0.201-1.924
	c0-0.738-0.11-1.462-0.33-2.168c-0.22-0.707-0.544-1.337-0.972-1.892c-0.428-0.554-0.956-1-1.584-1.337
	c-0.629-0.338-1.352-0.507-2.169-0.507c-0.727,0-1.401,0.116-2.02,0.347c-0.62,0.232-1.181,0.547-1.686,0.948
	c-0.504,0.4-0.95,0.868-1.336,1.404c-0.386,0.534-0.709,1.107-0.971,1.717c-0.262,0.61-0.459,1.24-0.594,1.891
	c-0.134,0.651-0.201,1.293-0.201,1.925c0,0.739,0.11,1.461,0.33,2.168C95.456,20.463,95.778,21.094,96.203,21.648z M97.256,15.489
	c0.042-0.441,0.114-0.883,0.215-1.328c0.103-0.444,0.238-0.876,0.407-1.295c0.17-0.419,0.383-0.791,0.642-1.117
	c0.259-0.326,0.564-0.586,0.92-0.78c0.354-0.194,0.764-0.291,1.229-0.291c0.428,0,0.819,0.074,1.173,0.225
	c0.354,0.151,0.673,0.355,0.958,0.615c0.284,0.26,0.529,0.567,0.737,0.921c0.208,0.354,0.381,0.732,0.522,1.135
	c0.139,0.404,0.244,0.823,0.311,1.259c0.067,0.434,0.1,0.868,0.1,1.299c0,0.369-0.021,0.774-0.063,1.211
	c-0.041,0.438-0.112,0.881-0.215,1.329c-0.102,0.447-0.238,0.88-0.407,1.3c-0.169,0.418-0.383,0.792-0.642,1.117
	c-0.258,0.325-0.565,0.586-0.919,0.784s-0.764,0.295-1.23,0.295c-0.427,0-0.818-0.074-1.172-0.226
	c-0.355-0.15-0.674-0.357-0.958-0.62c-0.284-0.263-0.53-0.571-0.738-0.924c-0.207-0.354-0.381-0.733-0.521-1.14
	c-0.141-0.407-0.244-0.83-0.311-1.268c-0.067-0.438-0.101-0.87-0.101-1.295C97.193,16.333,97.215,15.931,97.256,15.489z"/>
<path d="M13.158,48.855c-0.044-0.036-0.092-0.068-0.143-0.097c-0.051-0.029-0.097-0.053-0.135-0.072
	c-0.411,0.364-0.823,0.678-1.236,0.938c-0.413,0.261-0.822,0.478-1.228,0.647c-0.406,0.17-0.806,0.295-1.199,0.374
	c-0.395,0.08-0.777,0.119-1.148,0.119c-0.533,0-1.04-0.082-1.522-0.245c-0.481-0.163-0.929-0.399-1.342-0.708
	c-0.413-0.31-0.786-0.687-1.119-1.133c-0.332-0.446-0.616-0.949-0.851-1.51c-0.234-0.561-0.416-1.174-0.543-1.84
	c-0.127-0.667-0.19-1.376-0.19-2.129c0-0.637,0.05-1.268,0.151-1.891c0.1-0.624,0.251-1.218,0.455-1.784
	c0.203-0.565,0.459-1.089,0.77-1.57c0.31-0.482,0.676-0.899,1.096-1.251c0.42-0.353,0.898-0.628,1.434-0.828
	c0.535-0.199,1.13-0.298,1.786-0.298c0.381,0,0.755,0.037,1.122,0.111c0.367,0.074,0.711,0.183,1.034,0.327
	c0.323,0.144,0.619,0.321,0.891,0.531c0.271,0.212,0.504,0.454,0.7,0.727c0.187,0.273,0.314,0.56,0.386,0.859
	c0.07,0.299,0.108,0.614,0.113,0.945c0,0.067-0.001,0.131-0.003,0.19c-0.002,0.06-0.006,0.124-0.011,0.19l0.638,0.022
	c0.039-0.749,0.071-1.386,0.095-1.913c0.024-0.527,0.037-0.957,0.037-1.288c0-0.158-0.113-0.333-0.337-0.525
	c-0.225-0.191-0.536-0.371-0.932-0.539c-0.396-0.167-0.867-0.309-1.412-0.424c-0.545-0.115-1.138-0.173-1.778-0.173
	c-0.929,0-1.78,0.126-2.552,0.377c-0.772,0.252-1.466,0.6-2.083,1.043c-0.616,0.443-1.154,0.965-1.617,1.564
	c-0.461,0.6-0.845,1.244-1.151,1.934c-0.306,0.69-0.535,1.414-0.689,2.168c-0.154,0.755-0.231,1.506-0.231,2.254
	c0,0.776,0.079,1.514,0.238,2.211c0.159,0.698,0.385,1.344,0.679,1.938c0.293,0.594,0.647,1.129,1.063,1.607
	c0.416,0.477,0.88,0.883,1.393,1.219c0.514,0.335,1.07,0.593,1.669,0.773s1.228,0.27,1.889,0.27c0.498,0,0.999-0.047,1.5-0.14
	c0.501-0.094,0.999-0.248,1.492-0.464s0.985-0.499,1.474-0.848c0.489-0.35,0.973-0.785,1.453-1.302
	c0.039-0.052,0.058-0.093,0.058-0.122c0-0.043-0.016-0.086-0.047-0.13C13.24,48.931,13.203,48.891,13.158,48.855z"/>
<path d="M22.927,42.506c-0.327-0.424-0.732-0.766-1.213-1.025c-0.481-0.259-1.036-0.388-1.661-0.388
	c-0.558,0-1.074,0.089-1.548,0.266c-0.474,0.178-0.904,0.42-1.291,0.726c-0.386,0.307-0.728,0.666-1.023,1.075
	c-0.296,0.41-0.544,0.849-0.745,1.316c-0.2,0.467-0.352,0.951-0.455,1.449c-0.103,0.498-0.154,0.99-0.154,1.474
	c0,0.566,0.084,1.119,0.253,1.662c0.168,0.541,0.416,1.024,0.741,1.448c0.325,0.425,0.729,0.766,1.21,1.025
	c0.482,0.259,1.035,0.388,1.661,0.388c0.558,0,1.073-0.088,1.547-0.266c0.474-0.177,0.905-0.419,1.291-0.726
	s0.728-0.665,1.023-1.075c0.295-0.41,0.544-0.849,0.748-1.316c0.203-0.467,0.356-0.951,0.458-1.449
	c0.103-0.499,0.154-0.99,0.154-1.475c0-0.565-0.084-1.119-0.253-1.661C23.502,43.414,23.254,42.93,22.927,42.506z M22.117,47.212
	c-0.032,0.336-0.087,0.675-0.165,1.018c-0.078,0.342-0.182,0.675-0.312,0.996c-0.13,0.321-0.293,0.606-0.492,0.855
	s-0.433,0.45-0.704,0.601s-0.585,0.226-0.942,0.226c-0.328,0-0.627-0.057-0.898-0.172c-0.271-0.116-0.516-0.274-0.733-0.475
	c-0.217-0.201-0.405-0.438-0.564-0.709c-0.159-0.271-0.292-0.562-0.4-0.874c-0.107-0.312-0.187-0.635-0.238-0.971
	s-0.077-0.666-0.077-0.992c0-0.278,0.016-0.586,0.047-0.924c0.032-0.338,0.086-0.677,0.165-1.017
	c0.078-0.34,0.182-0.672,0.312-0.993c0.13-0.321,0.293-0.606,0.492-0.855c0.198-0.25,0.433-0.448,0.704-0.597
	c0.271-0.148,0.585-0.223,0.943-0.223c0.327,0,0.627,0.058,0.898,0.172c0.272,0.115,0.516,0.272,0.733,0.471
	c0.218,0.199,0.406,0.434,0.565,0.705c0.158,0.271,0.292,0.561,0.399,0.87c0.107,0.309,0.187,0.63,0.238,0.964
	c0.051,0.333,0.077,0.665,0.077,0.996C22.164,46.567,22.148,46.876,22.117,47.212z"/>
<path d="M36.795,50.545c-0.274,0.07-0.538,0.104-0.792,0.104c-0.176,0-0.325-0.025-0.448-0.075c-0.122-0.051-0.22-0.145-0.293-0.28
	c-0.073-0.138-0.126-0.323-0.158-0.558s-0.048-0.54-0.048-0.913c0-0.216,0.009-0.469,0.026-0.759
	c0.017-0.291,0.038-0.596,0.062-0.917c0.025-0.321,0.053-0.648,0.084-0.982c0.032-0.333,0.06-0.648,0.084-0.945
	c0.024-0.297,0.045-0.566,0.063-0.809c0.017-0.242,0.025-0.435,0.025-0.579c0-0.494-0.059-0.915-0.176-1.262
	c-0.117-0.347-0.275-0.631-0.473-0.852c-0.198-0.22-0.424-0.381-0.679-0.481c-0.254-0.101-0.518-0.151-0.792-0.151
	c-0.396,0-0.812,0.117-1.247,0.352c-0.435,0.235-0.873,0.618-1.313,1.147c-0.44,0.529-0.872,1.22-1.298,2.071
	c-0.425,0.851-0.824,1.895-1.195,3.132l-0.044-0.007c0.044-0.417,0.085-0.835,0.125-1.255c0.039-0.419,0.074-0.825,0.106-1.218
	s0.06-0.763,0.084-1.111c0.024-0.347,0.045-0.655,0.062-0.924c0.017-0.268,0.031-0.489,0.041-0.665s0.014-0.287,0.014-0.335
	c0-0.402-0.079-0.686-0.238-0.852c-0.159-0.166-0.38-0.248-0.664-0.248c-0.117,0-0.279,0.019-0.483,0.058
	c-0.206,0.038-0.443,0.093-0.712,0.165c-0.269,0.072-0.563,0.157-0.883,0.255c-0.321,0.099-0.654,0.208-1.001,0.327l0.109,0.518
	c0.313-0.081,0.592-0.147,0.836-0.194c0.245-0.048,0.455-0.072,0.63-0.072c0.127,0,0.237,0.017,0.33,0.05
	c0.093,0.033,0.17,0.09,0.231,0.169c0.062,0.08,0.106,0.186,0.136,0.32c0.029,0.134,0.043,0.299,0.043,0.496
	c0,0.216-0.003,0.511-0.011,0.885c-0.008,0.374-0.02,0.797-0.037,1.269s-0.037,0.98-0.059,1.524
	c-0.021,0.544-0.047,1.093-0.077,1.647c-0.029,0.554-0.061,1.099-0.095,1.635c-0.035,0.537-0.071,1.033-0.11,1.489l0.118,0.007
	l1.533-0.187c0.039-0.709,0.135-1.419,0.286-2.128c0.152-0.709,0.342-1.389,0.572-2.039s0.488-1.253,0.774-1.812
	c0.286-0.559,0.584-1.043,0.895-1.453c0.311-0.41,0.623-0.732,0.936-0.966c0.313-0.235,0.611-0.353,0.894-0.353
	c0.357,0,0.643,0.133,0.858,0.399c0.215,0.266,0.323,0.679,0.323,1.24c0,0.211-0.016,0.493-0.047,0.845
	c-0.032,0.353-0.067,0.744-0.107,1.176c-0.039,0.432-0.074,0.885-0.106,1.362c-0.032,0.477-0.048,0.941-0.048,1.391
	c0,0.37,0.011,0.715,0.033,1.036c0.021,0.321,0.07,0.601,0.146,0.841c0.076,0.24,0.189,0.429,0.341,0.568
	c0.151,0.139,0.36,0.208,0.624,0.208c0.225,0,0.484-0.037,0.777-0.111c0.293-0.075,0.588-0.171,0.884-0.291
	c0.296-0.12,0.578-0.252,0.847-0.396c0.269-0.145,0.491-0.285,0.667-0.425l-0.139-0.374C37.346,50.378,37.069,50.476,36.795,50.545z
	"/>
<path d="M43.763,43.912l0.022,0.072c0.225,0.063,0.44,0.093,0.645,0.093c0.22-0.004,0.406-0.045,0.558-0.122
	c0.151-0.077,0.273-0.171,0.366-0.284c0.093-0.113,0.159-0.234,0.198-0.364c0.04-0.128,0.059-0.249,0.059-0.359
	c0-0.287-0.077-0.546-0.231-0.776c-0.154-0.229-0.361-0.425-0.624-0.585c-0.262-0.161-0.567-0.283-0.917-0.367
	c-0.349-0.084-0.72-0.126-1.111-0.126c-0.303,0-0.615,0.028-0.935,0.083c-0.32,0.056-0.632,0.139-0.935,0.252
	c-0.303,0.112-0.588,0.252-0.854,0.42c-0.267,0.168-0.501,0.363-0.705,0.586c-0.203,0.224-0.363,0.473-0.48,0.751
	c-0.117,0.278-0.176,0.583-0.176,0.914c0,0.307,0.045,0.585,0.136,0.837c0.09,0.252,0.215,0.479,0.374,0.684
	c0.159,0.204,0.345,0.389,0.557,0.557c0.213,0.167,0.441,0.324,0.686,0.467c0.244,0.144,0.498,0.276,0.759,0.399
	c0.262,0.122,0.522,0.244,0.781,0.363c0.293,0.139,0.576,0.276,0.847,0.41c0.271,0.134,0.51,0.28,0.715,0.438
	c0.206,0.158,0.369,0.333,0.492,0.525c0.122,0.192,0.183,0.415,0.183,0.668c0,0.245-0.058,0.465-0.173,0.662
	c-0.115,0.196-0.267,0.362-0.458,0.497c-0.19,0.133-0.411,0.237-0.66,0.309c-0.25,0.072-0.509,0.108-0.777,0.108
	c-0.289,0-0.579-0.041-0.869-0.122c-0.291-0.082-0.557-0.206-0.796-0.374s-0.441-0.384-0.605-0.647
	c-0.164-0.264-0.262-0.578-0.297-0.942l-0.059-0.05c-0.171,0.005-0.338,0.027-0.502,0.068c-0.163,0.041-0.312,0.102-0.443,0.184
	c-0.132,0.082-0.238,0.187-0.319,0.316c-0.081,0.13-0.121,0.287-0.121,0.475c0,0.215,0.05,0.414,0.15,0.593
	c0.1,0.179,0.237,0.342,0.41,0.489c0.174,0.146,0.377,0.276,0.609,0.389c0.232,0.112,0.478,0.208,0.737,0.284
	c0.26,0.076,0.527,0.134,0.803,0.172c0.276,0.039,0.544,0.058,0.803,0.058c0.518,0,1.018-0.068,1.5-0.205
	c0.482-0.136,0.909-0.336,1.28-0.601c0.372-0.264,0.668-0.587,0.891-0.97c0.223-0.384,0.334-0.823,0.334-1.316
	c0-0.413-0.089-0.771-0.268-1.075c-0.178-0.305-0.412-0.574-0.7-0.809c-0.289-0.235-0.616-0.445-0.983-0.629
	c-0.366-0.185-0.735-0.364-1.107-0.537c-0.333-0.153-0.651-0.306-0.958-0.459c-0.306-0.153-0.575-0.317-0.811-0.493
	c-0.234-0.175-0.423-0.367-0.564-0.575c-0.142-0.208-0.213-0.445-0.213-0.708c0-0.206,0.05-0.406,0.15-0.597
	c0.101-0.192,0.245-0.363,0.433-0.514c0.188-0.152,0.419-0.273,0.693-0.363c0.274-0.091,0.584-0.137,0.932-0.137
	c0.196,0,0.395,0.021,0.597,0.064c0.203,0.043,0.388,0.113,0.554,0.208c0.167,0.096,0.305,0.22,0.415,0.37
	c0.109,0.151,0.167,0.336,0.172,0.558c0,0.11-0.015,0.23-0.043,0.36C43.88,43.617,43.831,43.758,43.763,43.912z"/>
<path d="M58.874,50.62c-0.081,0.048-0.17,0.093-0.268,0.133c-0.097,0.041-0.202,0.076-0.312,0.104
	c-0.109,0.029-0.221,0.043-0.333,0.043c-0.191,0-0.38-0.054-0.568-0.162c-0.188-0.107-0.356-0.304-0.502-0.589
	c-0.146-0.285-0.266-0.676-0.359-1.172c-0.093-0.496-0.139-1.134-0.139-1.916c0-0.413,0.007-0.863,0.022-1.353
	c0.015-0.489,0.037-0.988,0.066-1.499c0.03-0.51,0.063-1.021,0.099-1.531c0.037-0.511,0.077-0.994,0.122-1.449l-0.118-0.008
	l-1.555,0.188c-0.078,1.217-0.256,2.353-0.535,3.404c-0.279,1.052-0.617,2-1.013,2.844c-0.396,0.844-0.812,1.485-1.247,1.924
	c-0.435,0.439-0.86,0.658-1.276,0.658c-0.366,0-0.66-0.132-0.88-0.395c-0.22-0.264-0.33-0.681-0.33-1.252
	c0-0.192,0.011-0.43,0.033-0.715s0.049-0.599,0.08-0.938c0.032-0.34,0.066-0.701,0.103-1.082c0.037-0.381,0.071-0.764,0.103-1.147
	c0.031-0.383,0.059-0.761,0.081-1.132c0.022-0.372,0.033-0.72,0.033-1.046c0-0.216-0.014-0.408-0.041-0.576
	c-0.027-0.167-0.074-0.312-0.143-0.431c-0.068-0.12-0.158-0.211-0.271-0.273c-0.112-0.062-0.256-0.093-0.433-0.093
	c-0.088,0-0.226,0.017-0.414,0.05c-0.188,0.033-0.418,0.083-0.69,0.151c-0.271,0.067-0.579,0.153-0.924,0.256
	c-0.344,0.103-0.717,0.224-1.118,0.363l0.109,0.518c0.294-0.081,0.573-0.147,0.84-0.194c0.266-0.048,0.482-0.072,0.648-0.072
	c0.167,0,0.298,0.024,0.393,0.072c0.095,0.047,0.167,0.122,0.217,0.222c0.049,0.102,0.08,0.228,0.095,0.381
	c0.015,0.154,0.022,0.336,0.022,0.547c0,0.522-0.02,1.051-0.059,1.585c-0.039,0.534-0.082,1.052-0.128,1.553
	c-0.046,0.501-0.089,0.973-0.128,1.417c-0.039,0.443-0.059,0.833-0.059,1.168c0,0.513,0.06,0.944,0.18,1.294
	c0.119,0.349,0.28,0.631,0.48,0.845c0.201,0.213,0.429,0.367,0.686,0.46c0.257,0.094,0.525,0.14,0.804,0.14
	c0.371,0,0.762-0.106,1.173-0.319c0.411-0.214,0.82-0.57,1.229-1.068c0.408-0.499,0.807-1.156,1.195-1.971s0.749-1.824,1.082-3.027
	l0.081,0.014c-0.044,0.326-0.083,0.624-0.114,0.896c-0.032,0.271-0.058,0.523-0.077,0.758c-0.02,0.235-0.035,0.458-0.044,0.669
	c-0.01,0.21-0.015,0.419-0.015,0.625c0,0.642,0.062,1.179,0.187,1.611c0.125,0.432,0.29,0.776,0.495,1.035
	c0.206,0.259,0.441,0.443,0.708,0.554s0.542,0.165,0.825,0.165c0.226,0,0.448-0.026,0.667-0.079c0.22-0.052,0.431-0.126,0.631-0.219
	c0.2-0.094,0.391-0.204,0.572-0.331c0.181-0.127,0.342-0.262,0.484-0.406l-0.242-0.331C59.024,50.53,58.955,50.573,58.874,50.62z"/>
<path d="M63.766,50.545c-0.271,0.07-0.524,0.104-0.759,0.104c-0.127,0-0.237-0.013-0.33-0.04c-0.093-0.027-0.173-0.078-0.242-0.154
	c-0.069-0.077-0.126-0.188-0.173-0.331c-0.046-0.144-0.083-0.333-0.109-0.568c-0.027-0.235-0.047-0.523-0.059-0.863
	s-0.018-0.748-0.018-1.223c0-0.757,0.015-1.548,0.044-2.373c0.029-0.824,0.071-1.665,0.125-2.52
	c0.053-0.856,0.117-1.725,0.191-2.607c0.073-0.881,0.152-1.76,0.238-2.635c0.086-0.875,0.176-1.74,0.271-2.596
	c0.095-0.856,0.192-1.691,0.29-2.506c-0.323-0.153-0.631-0.23-0.924-0.23c-0.127,0-0.253,0.011-0.377,0.036
	c-0.125,0.024-0.237,0.061-0.338,0.111c-0.1,0.051-0.182,0.117-0.246,0.201c-0.063,0.084-0.098,0.184-0.103,0.298
	c-0.034,0.503-0.071,1.084-0.11,1.741c-0.039,0.657-0.081,1.355-0.125,2.096c-0.044,0.741-0.088,1.508-0.132,2.301
	c-0.044,0.794-0.086,1.58-0.125,2.359c-0.039,0.779-0.076,1.533-0.11,2.262c-0.034,0.729-0.064,1.399-0.091,2.013
	c-0.027,0.614-0.047,1.152-0.063,1.615c-0.015,0.462-0.022,0.818-0.022,1.068c0,0.686,0.011,1.267,0.034,1.744
	c0.022,0.477,0.073,0.864,0.154,1.161c0.081,0.297,0.198,0.512,0.352,0.643c0.154,0.132,0.363,0.198,0.627,0.198
	c0.205,0,0.449-0.037,0.73-0.111c0.281-0.075,0.568-0.171,0.862-0.291c0.293-0.12,0.573-0.252,0.839-0.396
	c0.267-0.145,0.488-0.285,0.664-0.425l-0.14-0.374C64.312,50.378,64.037,50.476,63.766,50.545z"/>
<path d="M70.733,50.563c-0.325,0.091-0.62,0.137-0.884,0.137c-0.367,0-0.669-0.075-0.909-0.223s-0.428-0.363-0.565-0.644
	c-0.137-0.281-0.232-0.622-0.286-1.024c-0.054-0.403-0.081-0.86-0.081-1.374c0-0.273,0.005-0.595,0.015-0.963
	c0.01-0.369,0.026-0.77,0.048-1.201c0.022-0.431,0.051-0.891,0.088-1.376c0.037-0.487,0.082-0.987,0.136-1.5
	c0.474,0.034,0.91,0.07,1.309,0.108s0.759,0.058,1.082,0.058c0.337,0,0.595-0.031,0.773-0.094s0.268-0.199,0.268-0.41
	c0-0.058-0.008-0.12-0.022-0.187c-0.014-0.068-0.034-0.142-0.058-0.223c-0.284,0.052-0.648,0.079-1.093,0.079
	c-0.103,0-0.23,0-0.385,0s-0.326-0.002-0.513-0.007c-0.188-0.005-0.392-0.009-0.609-0.014c-0.218-0.005-0.441-0.012-0.671-0.021
	c0.098-0.944,0.217-1.902,0.356-2.873c0.139-0.971,0.312-1.912,0.517-2.822c-0.112-0.063-0.233-0.111-0.363-0.144
	c-0.13-0.034-0.275-0.051-0.437-0.051c-0.098,0-0.198,0.01-0.301,0.029s-0.198,0.053-0.286,0.101s-0.165,0.113-0.231,0.194
	c-0.066,0.082-0.111,0.186-0.136,0.31c-0.127,0.7-0.254,1.496-0.381,2.387c-0.127,0.892-0.247,1.838-0.359,2.84
	c-0.298,0.02-0.572,0.053-0.821,0.1c-0.25,0.048-0.463,0.108-0.642,0.18c-0.179,0.072-0.318,0.152-0.418,0.241
	c-0.101,0.089-0.151,0.183-0.151,0.284c0,0.039,0.008,0.072,0.022,0.101c0.235-0.058,0.518-0.1,0.847-0.126
	c0.33-0.026,0.688-0.042,1.075-0.046c-0.049,0.46-0.093,0.927-0.132,1.401c-0.04,0.475-0.071,0.949-0.096,1.424
	c-0.024,0.475-0.044,0.943-0.059,1.406c-0.014,0.462-0.022,0.912-0.022,1.348c0,0.777,0.055,1.419,0.165,1.928
	c0.11,0.508,0.264,0.912,0.462,1.211s0.433,0.508,0.704,0.625c0.271,0.118,0.571,0.176,0.898,0.176c0.25,0,0.513-0.031,0.792-0.093
	c0.279-0.063,0.567-0.152,0.866-0.266c0.298-0.115,0.601-0.253,0.909-0.414c0.308-0.16,0.614-0.339,0.917-0.535
	c-0.02-0.187-0.096-0.345-0.228-0.475C71.429,50.326,71.058,50.472,70.733,50.563z"/>
<path d="M76.952,50.545c-0.271,0.07-0.524,0.104-0.759,0.104c-0.127,0-0.241-0.012-0.341-0.036c-0.1-0.024-0.188-0.076-0.264-0.155
	c-0.076-0.079-0.139-0.191-0.191-0.338c-0.051-0.146-0.094-0.341-0.127-0.586c-0.035-0.244-0.059-0.545-0.074-0.902
	c-0.015-0.357-0.022-0.785-0.022-1.283c0-0.37,0.008-0.783,0.025-1.241c0.017-0.458,0.044-0.943,0.081-1.456
	c0.036-0.513,0.084-1.044,0.143-1.593c0.059-0.549,0.129-1.097,0.212-1.643c-0.289-0.148-0.596-0.223-0.924-0.223
	c-0.087,0-0.184,0.008-0.289,0.025c-0.105,0.017-0.205,0.048-0.297,0.094s-0.171,0.11-0.235,0.194
	c-0.063,0.084-0.1,0.193-0.11,0.327c-0.039,0.614-0.07,1.209-0.095,1.787c-0.024,0.578-0.044,1.126-0.059,1.646
	c-0.015,0.52-0.025,1.007-0.033,1.459c-0.007,0.453-0.011,0.86-0.011,1.219c0,0.613,0.013,1.136,0.037,1.567s0.06,0.791,0.106,1.079
	c0.046,0.288,0.105,0.515,0.176,0.683c0.071,0.167,0.151,0.295,0.242,0.381c0.09,0.086,0.191,0.14,0.304,0.162
	c0.113,0.021,0.237,0.032,0.375,0.032c0.205,0,0.449-0.037,0.729-0.111c0.281-0.075,0.568-0.171,0.862-0.291
	c0.293-0.12,0.572-0.252,0.839-0.396c0.266-0.145,0.488-0.285,0.664-0.425l-0.14-0.374C77.499,50.378,77.223,50.476,76.952,50.545z"
	/>
<path d="M75.57,35.718c-0.132-0.06-0.281-0.089-0.447-0.089c-0.137,0-0.276,0.027-0.418,0.083c-0.142,0.055-0.271,0.139-0.389,0.251
	c-0.117,0.113-0.213,0.252-0.286,0.417c-0.074,0.165-0.11,0.355-0.11,0.571c0,0.153,0.024,0.303,0.073,0.449
	c0.049,0.146,0.12,0.276,0.213,0.388c0.092,0.113,0.205,0.204,0.337,0.273c0.132,0.07,0.284,0.104,0.455,0.104
	c0.181,0,0.346-0.041,0.495-0.122s0.276-0.189,0.381-0.324c0.105-0.134,0.187-0.284,0.246-0.45c0.059-0.165,0.088-0.331,0.088-0.5
	c0-0.158-0.025-0.305-0.077-0.442c-0.051-0.137-0.125-0.258-0.22-0.363C75.815,35.861,75.702,35.778,75.57,35.718z"/>
<path d="M90.568,50.254c-0.279,0.125-0.555,0.222-0.829,0.291c-0.274,0.07-0.538,0.104-0.792,0.104
	c-0.175,0-0.325-0.025-0.447-0.075c-0.122-0.051-0.22-0.145-0.293-0.28c-0.073-0.138-0.126-0.323-0.158-0.558
	c-0.031-0.235-0.047-0.54-0.047-0.913c0-0.216,0.008-0.469,0.025-0.759c0.017-0.291,0.038-0.596,0.063-0.917
	c0.025-0.321,0.053-0.648,0.084-0.982c0.032-0.333,0.061-0.648,0.085-0.945c0.024-0.297,0.045-0.566,0.062-0.809
	s0.026-0.435,0.026-0.579c0-0.494-0.059-0.915-0.176-1.262c-0.118-0.347-0.275-0.631-0.473-0.852
	c-0.198-0.22-0.424-0.381-0.679-0.481c-0.254-0.101-0.518-0.151-0.792-0.151c-0.396,0-0.812,0.117-1.247,0.352
	c-0.435,0.235-0.873,0.618-1.313,1.147c-0.44,0.529-0.873,1.22-1.298,2.071s-0.824,1.895-1.195,3.132l-0.044-0.007
	c0.044-0.417,0.085-0.835,0.125-1.255c0.039-0.419,0.074-0.825,0.106-1.218c0.031-0.393,0.06-0.763,0.084-1.111
	c0.024-0.347,0.045-0.655,0.063-0.924c0.017-0.268,0.031-0.489,0.041-0.665c0.009-0.175,0.014-0.287,0.014-0.335
	c0-0.402-0.079-0.686-0.238-0.852c-0.159-0.166-0.38-0.248-0.664-0.248c-0.117,0-0.279,0.019-0.484,0.058
	c-0.205,0.038-0.442,0.093-0.711,0.165c-0.269,0.072-0.564,0.157-0.884,0.255c-0.321,0.099-0.654,0.208-1.001,0.327l0.109,0.518
	c0.313-0.081,0.592-0.147,0.836-0.194c0.245-0.048,0.455-0.072,0.631-0.072c0.127,0,0.237,0.017,0.33,0.05
	c0.093,0.033,0.17,0.09,0.23,0.169c0.062,0.08,0.107,0.186,0.136,0.32c0.029,0.134,0.043,0.299,0.043,0.496
	c0,0.216-0.003,0.511-0.01,0.885c-0.008,0.374-0.02,0.797-0.037,1.269c-0.017,0.472-0.037,0.98-0.058,1.524
	c-0.022,0.544-0.048,1.093-0.077,1.647c-0.03,0.554-0.061,1.099-0.096,1.635c-0.034,0.537-0.071,1.033-0.11,1.489l0.117,0.007
	l1.533-0.187c0.039-0.709,0.134-1.419,0.286-2.128s0.342-1.389,0.572-2.039c0.229-0.649,0.487-1.253,0.773-1.812
	c0.286-0.559,0.584-1.043,0.895-1.453c0.311-0.41,0.623-0.732,0.936-0.966c0.313-0.235,0.611-0.353,0.895-0.353
	c0.357,0,0.643,0.133,0.858,0.399c0.215,0.266,0.323,0.679,0.323,1.24c0,0.211-0.016,0.493-0.048,0.845
	c-0.032,0.353-0.067,0.744-0.106,1.176s-0.074,0.885-0.106,1.362c-0.032,0.477-0.047,0.941-0.047,1.391
	c0,0.37,0.011,0.715,0.033,1.036c0.021,0.321,0.07,0.601,0.146,0.841s0.189,0.429,0.341,0.568s0.359,0.208,0.624,0.208
	c0.225,0,0.484-0.037,0.777-0.111c0.293-0.075,0.588-0.171,0.884-0.291c0.295-0.12,0.578-0.252,0.847-0.396
	c0.269-0.145,0.492-0.285,0.667-0.425L90.568,50.254z"/>
<path d="M100.96,40.317l-0.095,0.064c0.004,0.038,0.009,0.072,0.011,0.101c0.002,0.029,0.004,0.06,0.004,0.093
	c0,0.216-0.041,0.409-0.121,0.579c-0.081,0.17-0.189,0.314-0.326,0.432c-0.137,0.117-0.296,0.208-0.477,0.27
	s-0.369,0.093-0.565,0.093c-0.234,0-0.441-0.035-0.619-0.104c-0.179-0.069-0.361-0.149-0.547-0.241
	c-0.122-0.058-0.252-0.116-0.392-0.176c-0.139-0.061-0.292-0.115-0.459-0.166c-0.166-0.051-0.347-0.092-0.542-0.126
	c-0.195-0.034-0.41-0.05-0.645-0.05c-0.616,0-1.203,0.11-1.76,0.331c-0.557,0.22-1.047,0.525-1.47,0.913
	c-0.423,0.388-0.759,0.85-1.008,1.384c-0.25,0.535-0.375,1.115-0.375,1.744c0,0.369,0.054,0.723,0.162,1.061
	c0.108,0.338,0.263,0.65,0.466,0.938c0.203,0.288,0.452,0.544,0.748,0.77c0.296,0.225,0.632,0.409,1.008,0.553
	c-0.196,0.082-0.398,0.177-0.608,0.288c-0.21,0.11-0.404,0.24-0.58,0.392c-0.175,0.151-0.321,0.323-0.436,0.518
	c-0.115,0.194-0.172,0.413-0.172,0.658c0,0.216,0.043,0.409,0.128,0.579s0.198,0.322,0.337,0.457
	c0.139,0.134,0.295,0.25,0.469,0.349c0.174,0.099,0.351,0.186,0.532,0.263l-0.015,0.036c-0.25,0.072-0.507,0.169-0.773,0.291
	c-0.267,0.123-0.528,0.268-0.785,0.435c-0.257,0.168-0.5,0.357-0.73,0.568c-0.23,0.211-0.431,0.438-0.605,0.683
	s-0.312,0.508-0.414,0.791c-0.104,0.283-0.154,0.578-0.154,0.884c0,0.369,0.07,0.698,0.212,0.985
	c0.142,0.288,0.334,0.541,0.576,0.762c0.242,0.22,0.521,0.409,0.836,0.564c0.315,0.155,0.646,0.283,0.993,0.381
	c0.348,0.098,0.699,0.17,1.056,0.216c0.357,0.046,0.697,0.068,1.02,0.068c0.557,0,1.099-0.054,1.625-0.162
	c0.525-0.108,1.021-0.261,1.485-0.46c0.464-0.199,0.89-0.438,1.276-0.716c0.387-0.278,0.719-0.585,0.998-0.92
	c0.278-0.336,0.495-0.696,0.649-1.083c0.154-0.385,0.231-0.787,0.231-1.205c0-0.33-0.056-0.622-0.168-0.873
	c-0.112-0.251-0.269-0.473-0.469-0.662c-0.201-0.189-0.438-0.355-0.712-0.497c-0.273-0.141-0.572-0.264-0.894-0.37
	c-0.323-0.105-0.663-0.199-1.02-0.28c-0.356-0.081-0.718-0.161-1.085-0.237c-0.406-0.086-0.796-0.171-1.17-0.255
	c-0.375-0.084-0.703-0.181-0.986-0.291c-0.284-0.11-0.51-0.239-0.679-0.388s-0.252-0.329-0.252-0.54c0-0.105,0.029-0.21,0.087-0.313
	c0.059-0.103,0.142-0.2,0.25-0.291c0.108-0.091,0.232-0.17,0.374-0.237c0.142-0.067,0.299-0.118,0.47-0.151
	c0.112,0.014,0.221,0.026,0.326,0.036c0.105,0.009,0.211,0.015,0.319,0.015c0.415,0,0.813-0.055,1.195-0.166
	c0.381-0.111,0.738-0.266,1.07-0.464c0.333-0.199,0.635-0.434,0.906-0.705c0.271-0.271,0.504-0.568,0.697-0.891
	c0.193-0.324,0.342-0.667,0.447-1.029s0.158-0.732,0.158-1.111c0-0.364-0.049-0.724-0.146-1.079
	c-0.098-0.355-0.271-0.707-0.521-1.057l0.029-0.036c0.396,0.134,0.765,0.201,1.107,0.201c0.226,0,0.43-0.025,0.616-0.078
	c0.186-0.054,0.346-0.13,0.48-0.23c0.134-0.101,0.238-0.222,0.312-0.363c0.073-0.142,0.11-0.304,0.11-0.486
	c0-0.23-0.082-0.459-0.246-0.687C101.548,40.66,101.297,40.47,100.96,40.317z M94.477,52.619c0.489,0.12,0.965,0.226,1.426,0.317
	c0.462,0.091,0.901,0.192,1.317,0.302c0.308,0.082,0.591,0.17,0.851,0.266c0.259,0.096,0.483,0.212,0.671,0.349
	c0.188,0.137,0.336,0.297,0.443,0.482c0.108,0.185,0.161,0.406,0.161,0.665c0,0.46-0.108,0.884-0.326,1.273
	c-0.218,0.388-0.511,0.725-0.88,1.01s-0.798,0.508-1.287,0.669c-0.489,0.16-1.002,0.241-1.541,0.241
	c-0.396,0-0.796-0.053-1.203-0.158c-0.406-0.105-0.773-0.269-1.104-0.489c-0.33-0.22-0.599-0.498-0.806-0.83
	c-0.208-0.333-0.312-0.73-0.312-1.19c0-0.374,0.069-0.719,0.208-1.035c0.14-0.317,0.329-0.599,0.568-0.845
	c0.24-0.247,0.515-0.457,0.826-0.629C93.801,52.843,94.129,52.71,94.477,52.619z M98.154,45.964
	c-0.036,0.229-0.092,0.451-0.168,0.669c-0.076,0.217-0.172,0.426-0.29,0.625c-0.117,0.199-0.259,0.373-0.425,0.521
	c-0.166,0.148-0.355,0.267-0.568,0.356c-0.213,0.088-0.451,0.133-0.715,0.133c-0.299,0-0.572-0.048-0.822-0.144
	c-0.249-0.096-0.473-0.228-0.671-0.396c-0.198-0.168-0.372-0.365-0.521-0.589c-0.149-0.225-0.273-0.465-0.37-0.72
	c-0.098-0.254-0.171-0.519-0.221-0.794c-0.049-0.275-0.073-0.545-0.073-0.809c0-0.206,0.019-0.422,0.055-0.647
	c0.037-0.226,0.093-0.448,0.168-0.666c0.076-0.218,0.174-0.424,0.293-0.618c0.12-0.194,0.265-0.366,0.437-0.514
	c0.171-0.148,0.368-0.266,0.59-0.353c0.223-0.086,0.473-0.129,0.751-0.129c0.298,0,0.57,0.048,0.814,0.144
	c0.244,0.096,0.462,0.227,0.652,0.393c0.191,0.165,0.358,0.358,0.502,0.579c0.145,0.22,0.263,0.458,0.356,0.711
	c0.093,0.254,0.163,0.517,0.209,0.787c0.046,0.271,0.069,0.539,0.069,0.802C98.209,45.518,98.191,45.737,98.154,45.964z"/>
<path d="M118.118,49.017c-0.11,0.369-0.249,0.661-0.415,0.877c-0.166,0.215-0.365,0.367-0.598,0.453s-0.498,0.129-0.795,0.129
	c-0.425,0-0.857-0.013-1.294-0.04c-0.438-0.026-0.908-0.04-1.412-0.04c-0.357,0-0.743,0.016-1.159,0.047
	c-0.416,0.031-0.858,0.08-1.327,0.147c0.049-0.484,0.094-1.049,0.135-1.697c0.042-0.647,0.081-1.333,0.117-2.056
	c0.037-0.724,0.07-1.47,0.099-2.237c0.029-0.767,0.055-1.514,0.077-2.24c0.021-0.726,0.042-1.414,0.059-2.063
	c0.017-0.65,0.031-1.22,0.043-1.711s0.021-0.886,0.026-1.183c0.005-0.298,0.007-0.456,0.007-0.475c0-0.307-0.007-0.58-0.021-0.82
	c-0.015-0.24-0.063-0.442-0.143-0.607c-0.081-0.166-0.208-0.29-0.381-0.374c-0.174-0.084-0.422-0.126-0.745-0.126
	c-0.337,0-0.764,0.043-1.279,0.129c-0.516,0.086-1.133,0.22-1.852,0.403l0.073,0.597c0.254-0.039,0.499-0.065,0.733-0.083
	c0.235-0.017,0.433-0.025,0.594-0.025c0.239,0,0.432,0.022,0.576,0.068c0.144,0.046,0.255,0.119,0.333,0.219
	c0.078,0.101,0.128,0.232,0.15,0.393c0.022,0.16,0.033,0.353,0.033,0.578c0,0.772-0.002,1.572-0.007,2.402
	c-0.005,0.829-0.015,1.67-0.03,2.523c-0.014,0.854-0.036,1.706-0.066,2.56c-0.029,0.853-0.064,1.688-0.106,2.502
	c-0.042,0.814-0.093,1.6-0.154,2.354c-0.061,0.755-0.133,1.461-0.216,2.118l0.132,0.015c0.548-0.13,1.082-0.222,1.603-0.277
	c0.521-0.056,1.004-0.083,1.449-0.083c0.499,0,0.963,0.024,1.393,0.072c0.43,0.048,0.83,0.102,1.2,0.162
	c0.369,0.06,0.709,0.114,1.022,0.162s0.599,0.072,0.858,0.072c0.342,0,0.646-0.061,0.913-0.184c0.266-0.122,0.493-0.34,0.678-0.655
	c0.186-0.313,0.329-0.743,0.429-1.287c0.1-0.544,0.153-1.238,0.157-2.082l-0.638-0.05C118.312,48.178,118.228,48.648,118.118,49.017
	z"/>
<path d="M130.248,49.017c-0.11,0.369-0.249,0.661-0.414,0.877c-0.167,0.215-0.366,0.367-0.599,0.453
	c-0.232,0.086-0.497,0.129-0.795,0.129c-0.425,0-0.857-0.013-1.294-0.04c-0.438-0.026-0.908-0.04-1.412-0.04
	c-0.357,0-0.743,0.016-1.159,0.047c-0.416,0.031-0.858,0.08-1.327,0.147c0.049-0.484,0.094-1.049,0.135-1.697
	c0.042-0.647,0.081-1.333,0.117-2.056c0.037-0.724,0.07-1.47,0.099-2.237c0.03-0.767,0.055-1.514,0.077-2.24
	c0.021-0.726,0.041-1.414,0.059-2.063c0.017-0.65,0.032-1.22,0.044-1.711c0.013-0.492,0.021-0.886,0.026-1.183
	c0.005-0.298,0.007-0.456,0.007-0.475c0-0.307-0.007-0.58-0.021-0.82c-0.015-0.24-0.063-0.442-0.143-0.607
	c-0.081-0.166-0.208-0.29-0.381-0.374c-0.174-0.084-0.422-0.126-0.745-0.126c-0.337,0-0.764,0.043-1.279,0.129
	c-0.516,0.086-1.133,0.22-1.853,0.403l0.074,0.597c0.254-0.039,0.499-0.065,0.733-0.083s0.433-0.025,0.594-0.025
	c0.24,0,0.432,0.022,0.576,0.068c0.144,0.046,0.255,0.119,0.333,0.219c0.078,0.101,0.128,0.232,0.15,0.393
	c0.021,0.16,0.033,0.353,0.033,0.578c0,0.772-0.002,1.572-0.007,2.402c-0.005,0.829-0.015,1.67-0.029,2.523
	c-0.015,0.854-0.037,1.706-0.066,2.56c-0.029,0.853-0.064,1.688-0.106,2.502c-0.041,0.814-0.092,1.6-0.154,2.354
	c-0.061,0.755-0.133,1.461-0.216,2.118l0.132,0.015c0.548-0.13,1.082-0.222,1.603-0.277c0.521-0.056,1.003-0.083,1.448-0.083
	c0.499,0,0.963,0.024,1.394,0.072c0.43,0.048,0.83,0.102,1.199,0.162c0.369,0.06,0.71,0.114,1.023,0.162
	c0.313,0.048,0.599,0.072,0.858,0.072c0.342,0,0.647-0.061,0.913-0.184c0.267-0.122,0.493-0.34,0.679-0.655
	c0.186-0.313,0.329-0.743,0.429-1.287c0.1-0.544,0.152-1.238,0.157-2.082l-0.638-0.05C130.442,48.178,130.358,48.648,130.248,49.017
	z"/>
<path d="M144.765,48.855c-0.044-0.036-0.091-0.068-0.143-0.097c-0.051-0.029-0.097-0.053-0.136-0.072
	c-0.41,0.364-0.822,0.678-1.236,0.938c-0.413,0.261-0.822,0.478-1.228,0.647c-0.406,0.17-0.806,0.295-1.199,0.374
	c-0.393,0.08-0.776,0.119-1.148,0.119c-0.533,0-1.04-0.082-1.521-0.245s-0.929-0.399-1.342-0.708
	c-0.413-0.31-0.786-0.687-1.118-1.133c-0.333-0.446-0.617-0.949-0.852-1.51c-0.234-0.561-0.415-1.174-0.542-1.84
	c-0.127-0.667-0.19-1.376-0.19-2.129c0-0.637,0.05-1.268,0.15-1.891c0.101-0.624,0.252-1.218,0.455-1.784
	c0.203-0.565,0.459-1.089,0.77-1.57c0.311-0.482,0.676-0.899,1.096-1.251c0.421-0.353,0.898-0.628,1.434-0.828
	c0.535-0.199,1.13-0.298,1.786-0.298c0.381,0,0.755,0.037,1.122,0.111c0.367,0.074,0.711,0.183,1.034,0.327
	c0.323,0.144,0.62,0.321,0.892,0.531c0.271,0.212,0.505,0.454,0.7,0.727c0.186,0.273,0.314,0.56,0.385,0.859
	c0.07,0.299,0.109,0.614,0.114,0.945c0,0.067-0.001,0.131-0.004,0.19c-0.002,0.06-0.006,0.124-0.011,0.19l0.638,0.022
	c0.039-0.749,0.071-1.386,0.095-1.913c0.025-0.527,0.037-0.957,0.037-1.288c0-0.158-0.112-0.333-0.337-0.525
	c-0.225-0.191-0.536-0.371-0.932-0.539c-0.396-0.167-0.867-0.309-1.412-0.424c-0.545-0.115-1.138-0.173-1.779-0.173
	c-0.929,0-1.78,0.126-2.552,0.377c-0.772,0.252-1.467,0.6-2.083,1.043c-0.615,0.443-1.155,0.965-1.617,1.564
	c-0.462,0.6-0.846,1.244-1.151,1.934s-0.536,1.414-0.689,2.168c-0.154,0.755-0.231,1.506-0.231,2.254
	c0,0.776,0.08,1.514,0.238,2.211c0.159,0.698,0.385,1.344,0.678,1.938c0.294,0.594,0.647,1.129,1.064,1.607
	c0.415,0.477,0.88,0.883,1.393,1.219c0.514,0.335,1.07,0.593,1.668,0.773c0.599,0.18,1.229,0.27,1.888,0.27
	c0.499,0,0.999-0.047,1.5-0.14c0.5-0.094,0.999-0.248,1.492-0.464s0.985-0.499,1.474-0.848c0.488-0.35,0.973-0.785,1.452-1.302
	c0.04-0.052,0.059-0.093,0.059-0.122c0-0.043-0.016-0.086-0.048-0.13C144.847,48.931,144.809,48.891,144.765,48.855z"/>
<path d="M149.356,49.962c-0.054-0.141-0.13-0.264-0.228-0.367s-0.216-0.186-0.355-0.248c-0.14-0.062-0.292-0.093-0.458-0.093
	c-0.142,0-0.286,0.029-0.433,0.086c-0.146,0.057-0.28,0.143-0.4,0.255c-0.12,0.113-0.218,0.253-0.293,0.421
	s-0.114,0.362-0.114,0.583c0,0.153,0.026,0.304,0.077,0.453c0.051,0.148,0.125,0.281,0.22,0.396
	c0.095,0.115,0.213,0.207,0.352,0.277c0.139,0.069,0.294,0.104,0.466,0.104c0.186,0,0.355-0.042,0.51-0.126
	c0.153-0.084,0.286-0.193,0.396-0.327c0.11-0.134,0.194-0.285,0.253-0.453c0.059-0.168,0.088-0.338,0.088-0.51
	C149.437,50.254,149.41,50.104,149.356,49.962z"/>
</svg>
