<?xml version="1.0" encoding="utf-8"?><!DOCTYPE svg PUBLIC "-//W3C//DTD SVG 1.1//EN" "http://www.w3.org/Graphics/SVG/1.1/DTD/svg11.dtd"><svg width="272" height="194" viewBox="0 0 272 194" xmlns="http://www.w3.org/2000/svg" xmlns:xlink="http://www.w3.org/1999/xlink"><svg id="comment" data-name="Layer 1" width="66" height="66" viewBox="-1 -1 66 66" x="62" y="128"><defs><style>.acls-1{fill:#2f5572}</style></defs><title>comment</title><path class="acls-1" d="M.72.08A.67.67 0 0 0 0 .8v46.48a.72.72 0 0 0 .72.72H48l16 16V.72a.67.67 0 0 0-.72-.72H.8z"/></svg><svg id="facebook" data-name="Layer 1" width="23.23" height="44.01" viewBox="-1 -1 23.23 44.01" x="218" y="44.06"><defs><style>.bcls-1{fill:#fff}</style></defs><title>facebook</title><path class="bcls-1" d="M21.23.31V7H17.4a3.55 3.55 0 0 0-2.85.91 4.26 4.26 0 0 0-.74 2.72v4.77H21l-1 7.47h-6.19V42H6.27V22.85H0v-7.47h6.27V9.85q0-4.69 2.55-7.28A9 9 0 0 1 15.63 0a39.57 39.57 0 0 1 5.6.31z"/></svg><svg id="fire" data-name="Layer 1" width="58" height="66" viewBox="-1 -1 58 66" x="66" y="62"><defs><style>.ccls-1{fill:#d4953d}</style></defs><title>Untitled-2</title><path class="ccls-1" d="M16 0C24 16 0 24 0 40s16 24 16 24C8.16 48.16 32 40 32 24S16 0 16 0zm24 24c8 16-16 24-16 40h24c3.2 0 8-4 8-16 0-16-16-24-16-24z"/></svg><svg id="globe" data-name="Layer 1" width="66" height="66" viewBox="-1 -1 66 66" x="152"><defs><style>.dcls-1{fill:#d4953f}</style></defs><title>globe</title><path class="dcls-1" d="M32 0a32 32 0 1 0 32 32A32 32 0 0 0 32 0zm0 8a23.75 23.75 0 0 1 7.52 1.52c-1.68 1.6-3.6 3-3.28 4.48s5.52 1 5.52 4c0 2.16-3.36 2.8-1 5.28 2.8 2.8-5.12 7.84-5.28 11.52-.24 6.64 6.72 7.76 12.24 7.76 3.36 0 4.24 1.6 4 3.52a24.07 24.07 0 0 1-19.76 10 22.94 22.94 0 0 1-8.48-1.76c1.76-3.52-2.24-10.48-6-12.72-1.84-1.84-5.76-1.12-8-2a23.49 23.49 0 0 1-1.52-6.72 1.42 1.42 0 0 1 1.28-.72c1.52 0 3.6 3 4.72 2.72 1.4-.32-5.96-10.48-2.52-12.48 1.6-1 4.8 3.12 3.76-1.28-1-4.08 2.88-2.24 5.28-3.28 2.08-.88 3.6-3.28 1-4.72a8.55 8.55 0 0 1-1.76-1.52A23.75 23.75 0 0 1 32 8.08V8zm18.48 8.72A26.46 26.46 0 0 1 54 22.48v.24a11.78 11.78 0 0 1-1.76 1.76C50 26.72 49.68 22.8 48.72 22c-1-1-4.8.16-5.28-1-.56-1.48 4-3.4 7.04-4.28z"/></svg><svg id="instagram" data-name="Layer 1" width="44.01" height="44.01" viewBox="-1 -1 44.01 44.01" x="218" y="88.07"><defs><style>.ecls-1{fill:#fff}</style></defs><title>instagram</title><path class="ecls-1" d="M37.25 35.49V17.77h-3.69a11.77 11.77 0 0 1 .57 3.58 12.12 12.12 0 0 1-1.75 6.36 12.76 12.76 0 0 1-4.76 4.59 13.13 13.13 0 0 1-6.56 1.7 12.78 12.78 0 0 1-9.19-3.71 12 12 0 0 1-3.83-9 11.77 11.77 0 0 1 .49-3.56H4.68v17.76a1.63 1.63 0 0 0 1.6 1.67h29.3a1.63 1.63 0 0 0 1.17-.47 1.59 1.59 0 0 0 .5-1.2zm-7.77-14.57A7.75 7.75 0 0 0 27 15.14a8.28 8.28 0 0 0-6-2.4 8.25 8.25 0 0 0-5.91 2.39 7.75 7.75 0 0 0-2.47 5.78 7.75 7.75 0 0 0 2.47 5.79A8.25 8.25 0 0 0 21 29.1a8.28 8.28 0 0 0 6-2.4 7.75 7.75 0 0 0 2.48-5.78zm7.76-9.84V6.56a1.84 1.84 0 0 0-.54-1.31 1.8 1.8 0 0 0-1.31-.56h-4.78a1.8 1.8 0 0 0-1.31.56 1.84 1.84 0 0 0-.54 1.31v4.52A1.87 1.87 0 0 0 30.6 13h4.8a1.87 1.87 0 0 0 1.85-1.89zM42 5.39v31.23A5.41 5.41 0 0 1 36.62 42H5.39a5.19 5.19 0 0 1-3.8-1.59A5.19 5.19 0 0 1 0 36.62V5.39a5.19 5.19 0 0 1 1.59-3.8A5.19 5.19 0 0 1 5.39 0h31.23a5.19 5.19 0 0 1 3.8 1.59A5.19 5.19 0 0 1 42 5.39z"/></svg><svg id="mail" data-name="Layer 1" width="66" height="50" viewBox="-1 -1 66 50" x="152" y="66"><defs><style>.fcls-1{fill:#2f5572}</style></defs><title>mail</title><path class="fcls-1" d="M0 0v8l32 16L64 8V0H0zm0 16v32h64V16L32 32z"/></svg><svg id="rain" data-name="Layer 1" width="66" height="66" viewBox="-1 -1 66 66" y="62"><defs><style>.gcls-1{fill:#d4953f}</style></defs><title>rain</title><path class="gcls-1" d="M36 0a20.42 20.42 0 0 0-20 16A16 16 0 0 0 0 32a15.4 15.4 0 0 0 4.27 10.72A11.88 11.88 0 0 1 12 40a10.51 10.51 0 0 1 4.47 1A12 12 0 0 1 28 32a12.06 12.06 0 0 1 11.51 9A11.84 11.84 0 0 1 44 40a11.94 11.94 0 0 1 11 7.52A12.07 12.07 0 0 0 64 36c0-5.2-3.36-10.32-8-12v-4A20 20 0 0 0 36 0zm-9.27 40A4 4 0 0 0 24 44v16a4 4 0 1 0 8 0V44a4 4 0 0 0-4.71-4h-.56zm-16 8A4 4 0 0 0 8 52v8a4 4 0 1 0 8 0v-8a4 4 0 0 0-4.71-4h-.54zm32 0A4 4 0 0 0 40 52v8a4 4 0 1 0 8 0v-8a4 4 0 0 0-4.71-4h-.58z" transform="translate(-.04)"/></svg><svg id="star" data-name="Layer 1" width="66" height="66" viewBox="-1 -1 66 66" x="128" y="128"><defs><style>.hcls-1{fill:#d4953f}</style></defs><title>star</title><path class="hcls-1" d="M32 0l-8 24H0l20 16-8 24 20-16 20 16-8-24 20-16H40z"/></svg><svg id="twitter" data-name="Layer 1" width="53.78" height="44.06" viewBox="-1 -1 53.78 44.06" x="218"><defs><style>.icls-1{fill:#fff}</style></defs><title>twitter</title><path class="icls-1" d="M51.78 5a22.23 22.23 0 0 1-5.32 5.52v1.38a30.15 30.15 0 0 1-1.25 8.53 30.81 30.81 0 0 1-3.76 8.13 32.1 32.1 0 0 1-6.06 6.92 27 27 0 0 1-8.48 4.8 31 31 0 0 1-10.62 1.8A29.47 29.47 0 0 1 0 37.29a22.71 22.71 0 0 0 2.56.13 20.78 20.78 0 0 0 13.17-4.53 10.63 10.63 0 0 1-9.92-7.36 13.45 13.45 0 0 0 2 .16 11 11 0 0 0 2.79-.36 10.44 10.44 0 0 1-6.09-3.67 10.25 10.25 0 0 1-2.41-6.75v-.13a10.52 10.52 0 0 0 4.8 1.34 10.6 10.6 0 0 1-3.45-3.78 10.34 10.34 0 0 1-1.28-5.07 10.4 10.4 0 0 1 1.45-5.33 30.08 30.08 0 0 0 9.71 7.83A29.57 29.57 0 0 0 25.53 13a11.79 11.79 0 0 1-.26-2.43 10.23 10.23 0 0 1 3-7.48 10.64 10.64 0 0 1 15 0l.21.22A20.81 20.81 0 0 0 50.33.8a10.3 10.3 0 0 1-4.67 5.85A21.14 21.14 0 0 0 51.78 5z"/></svg><svg width="152" height="62" viewBox="-1 -1 152 62" id="vento-consulting-llc"><path stroke="#000" d="M39.374 2.816c.255-.028.488-.042.698-.042.333 0 .614.035.848.104.233.069.436.178.608.33.172.149.326.343.459.581.134.238.266.523.393.855.504 1.295 1.104 3.497 1.801 6.604.695 3.107 1.538 7.142 2.527 12.104l.201.028 1.57-.122c.881-1.54 1.715-3.043 2.504-4.511a149.83 149.83 0 0 0 2.178-4.205 116.263 116.263 0 0 0 1.795-3.769 61.079 61.079 0 0 0 1.354-3.202c.371-.958.655-1.792.853-2.506.198-.714.297-1.273.297-1.68 0-.457-.078-.839-.234-1.146a2.039 2.039 0 0 0-.608-.732 2.387 2.387 0 0 0-.847-.389 3.97 3.97 0 0 0-1.356-.099 6.164 6.164 0 0 0-.374.046l-.077.169c.887.751 1.331 1.787 1.331 3.108 0 .52-.083 1.131-.249 1.835a23.225 23.225 0 0 1-.699 2.333c-.3.851-.657 1.763-1.072 2.737a90.15 90.15 0 0 1-1.369 3.042 129.541 129.541 0 0 1-1.594 3.251 252.5 252.5 0 0 1-1.738 3.361h-.058a246.737 246.737 0 0 0-1.135-6.121c-.36-1.802-.702-3.403-1.024-4.802a99.32 99.32 0 0 0-.905-3.642 58.86 58.86 0 0 0-.776-2.643c-.134-.414-.26-.769-.378-1.065a2.955 2.955 0 0 0-.402-.732 1.373 1.373 0 0 0-.541-.423c-.21-.09-.479-.136-.804-.136-.454 0-1.013.065-1.675.198a54.11 54.11 0 0 0-2.48.563l.106.835c.326-.049.616-.088.872-.117zM56.588 17.597c0 .82.129 1.589.387 2.305.259.716.618 1.34 1.078 1.873a5.028 5.028 0 0 0 1.646 1.257c.639.306 1.34.46 2.107.46.447 0 .9-.059 1.359-.175.46-.115.912-.294 1.355-.534a7.161 7.161 0 0 0 1.283-.901 7.776 7.776 0 0 0 1.153-1.272.122.122 0 0 0 .029-.074.215.215 0 0 0-.058-.137.917.917 0 0 0-.133-.131 1.406 1.406 0 0 0-.168-.113 4.115 4.115 0 0 0-.148-.08c-.619.625-1.23 1.078-1.833 1.356-.603.279-1.192.418-1.767.418a3.32 3.32 0 0 1-1.59-.394 3.976 3.976 0 0 1-1.282-1.104c-.364-.473-.649-1.041-.857-1.704a7.354 7.354 0 0 1-.311-2.197v-.159c1.175-.1 2.268-.252 3.279-.455 1.012-.204 1.892-.471 2.639-.803.747-.332 1.332-.735 1.757-1.211a2.431 2.431 0 0 0 .636-1.671c0-.438-.095-.83-.287-1.174a2.658 2.658 0 0 0-.771-.868 3.659 3.659 0 0 0-1.125-.54 4.75 4.75 0 0 0-1.35-.188c-.715 0-1.384.109-2.007.329a6.49 6.49 0 0 0-1.713.906c-.52.385-.985.839-1.393 1.361s-.755 1.087-1.039 1.695a9.274 9.274 0 0 0-.651 1.915 9.243 9.243 0 0 0-.225 2.01zm2.499-3.266c.089-.388.206-.767.35-1.137.144-.368.317-.718.521-1.046.205-.329.44-.617.708-.864.269-.248.571-.443.91-.587a2.874 2.874 0 0 1 1.13-.215 1.92 1.92 0 0 1 1.412.597c.175.185.313.401.411.652.099.25.148.52.148.808 0 .431-.131.815-.392 1.15-.261.334-.64.623-1.135.863-.495.242-1.101.438-1.819.592-.718.153-1.53.262-2.436.324a9.51 9.51 0 0 1 .192-1.137zM72.673 20.207c.198-.927.447-1.813.746-2.662.3-.847.637-1.637 1.011-2.366.373-.729.762-1.362 1.168-1.897.405-.534.812-.955 1.221-1.262.408-.307.798-.46 1.168-.46.465 0 .838.174 1.12.521.281.348.421.887.421 1.62 0 .275-.021.644-.063 1.103l-.138 1.536a72.19 72.19 0 0 0-.14 1.778 27.04 27.04 0 0 0-.062 1.817c0 .482.014.932.042 1.351s.092.786.191 1.099c.099.313.247.56.445.741.198.182.469.271.814.271.293 0 .632-.048 1.015-.145a8.629 8.629 0 0 0 1.153-.38c.387-.156.755-.329 1.107-.516.351-.188.641-.372.871-.554l-.182-.488a6.813 6.813 0 0 1-1.081.38 4.205 4.205 0 0 1-1.035.137c-.23 0-.425-.033-.584-.099a.761.761 0 0 1-.383-.366c-.097-.178-.166-.421-.207-.728a9.132 9.132 0 0 1-.062-1.192c0-.281.011-.612.034-.99.021-.378.049-.777.082-1.196.031-.419.068-.847.11-1.283a86.998 86.998 0 0 0 .191-2.29c.022-.316.034-.568.034-.756 0-.644-.077-1.194-.229-1.647-.154-.454-.36-.825-.619-1.112a2.339 2.339 0 0 0-.885-.629 2.803 2.803 0 0 0-1.034-.198c-.517 0-1.06.153-1.628.46-.568.307-1.139.806-1.714 1.498-.574.691-1.139 1.593-1.694 2.703-.555 1.111-1.076 2.474-1.561 4.089l-.058-.01a124.364 124.364 0 0 0 .302-3.229c.042-.513.078-.997.11-1.45a243.185 243.185 0 0 0 .135-2.075c.013-.229.019-.374.019-.437 0-.526-.103-.896-.311-1.112-.208-.216-.496-.324-.866-.324-.154 0-.364.025-.632.075-.269.05-.578.121-.929.215a36.547 36.547 0 0 0-2.461.761l.144.676c.409-.107.772-.192 1.091-.254.32-.063.594-.093.824-.093.167 0 .31.022.43.065a.648.648 0 0 1 .302.221c.08.104.139.243.177.418.039.175.057.391.057.647a97.858 97.858 0 0 1-.062 2.813c-.022.616-.048 1.279-.077 1.99-.028.71-.063 1.426-.101 2.15-.038.722-.079 1.434-.125 2.134a79.148 79.148 0 0 1-.144 1.943l.154.01 2.001-.244c.055-.926.179-1.852.377-2.778zM85.843 11.105a21.78 21.78 0 0 1 1.402-.061c-.063.601-.12 1.211-.172 1.831-.051.62-.092 1.239-.125 1.859a99.722 99.722 0 0 0-.076 1.836 56.01 56.01 0 0 0-.029 1.76c0 1.014.072 1.852.215 2.516.144.663.346 1.191.604 1.582.258.392.564.663.919.816.353.153.745.23 1.172.23.326 0 .67-.041 1.034-.123a7.99 7.99 0 0 0 1.13-.347c.39-.15.785-.33 1.188-.54a14.23 14.23 0 0 0 1.196-.699.985.985 0 0 0-.296-.62 8.868 8.868 0 0 1-1.451.572c-.424.12-.809.179-1.153.179-.479 0-.875-.098-1.188-.292a1.967 1.967 0 0 1-.736-.84c-.179-.366-.303-.812-.374-1.338a13.501 13.501 0 0 1-.106-1.792 63.9 63.9 0 0 1 .082-2.826 74.852 74.852 0 0 1 .292-3.755c.619.043 1.189.09 1.709.141.521.05.991.075 1.413.075.44 0 .777-.04 1.01-.121.233-.082.35-.26.35-.536 0-.075-.009-.157-.028-.245a3.909 3.909 0 0 0-.077-.291c-.37.07-.846.104-1.426.104h-.502c-.202 0-.425-.003-.67-.009a111.42 111.42 0 0 0-.794-.019 46.829 46.829 0 0 1-.876-.029c.127-1.233.282-2.483.464-3.75s.406-2.495.675-3.684a2.003 2.003 0 0 0-.474-.188 2.312 2.312 0 0 0-.962-.028 1.308 1.308 0 0 0-.374.131 1.013 1.013 0 0 0-.302.253.907.907 0 0 0-.179.405 84.604 84.604 0 0 0-.498 3.117c-.166 1.165-.322 2.4-.469 3.709-.39.024-.747.068-1.073.131-.325.063-.604.142-.837.235s-.415.198-.546.314c-.131.116-.196.239-.196.371 0 .05.009.094.029.131.306-.075.675-.13 1.105-.165zM96.203 21.648c.424.554.951.999 1.58 1.337.628.338 1.352.507 2.168.507.728 0 1.401-.117 2.021-.348a6.152 6.152 0 0 0 1.685-.947c.503-.401.949-.87 1.335-1.404a9.124 9.124 0 0 0 .977-1.718 9.657 9.657 0 0 0 .8-3.816c0-.738-.11-1.462-.33-2.168a5.973 5.973 0 0 0-.972-1.892c-.428-.554-.956-1-1.584-1.337-.629-.338-1.352-.507-2.169-.507-.727 0-1.401.116-2.02.347a6.161 6.161 0 0 0-1.686.948c-.504.4-.95.868-1.336 1.404a8.95 8.95 0 0 0-.971 1.717 9.838 9.838 0 0 0-.795 3.816c0 .739.11 1.461.33 2.168.22.708.542 1.339.967 1.893zm1.053-6.159c.042-.441.114-.883.215-1.328a8.73 8.73 0 0 1 .407-1.295c.17-.419.383-.791.642-1.117.259-.326.564-.586.92-.78.354-.194.764-.291 1.229-.291.428 0 .819.074 1.173.225.354.151.673.355.958.615.284.26.529.567.737.921.208.354.381.732.522 1.135.139.404.244.823.311 1.259.067.434.1.868.1 1.299 0 .369-.021.774-.063 1.211-.041.438-.112.881-.215 1.329-.102.447-.238.88-.407 1.3a4.47 4.47 0 0 1-.642 1.117c-.258.325-.565.586-.919.784s-.764.295-1.23.295a2.94 2.94 0 0 1-1.172-.226 3.278 3.278 0 0 1-.958-.62 4.055 4.055 0 0 1-.738-.924 6.326 6.326 0 0 1-.521-1.14 7.184 7.184 0 0 1-.311-1.268 8.56 8.56 0 0 1-.101-1.295c0-.362.022-.764.063-1.206z"/><path d="M13.158 48.855a1.025 1.025 0 0 0-.143-.097 2.866 2.866 0 0 0-.135-.072 9.555 9.555 0 0 1-1.236.938 8.228 8.228 0 0 1-1.228.647c-.406.17-.806.295-1.199.374-.395.08-.777.119-1.148.119a4.718 4.718 0 0 1-2.864-.953 5.57 5.57 0 0 1-1.119-1.133 7.127 7.127 0 0 1-.851-1.51 9.288 9.288 0 0 1-.543-1.84 11.37 11.37 0 0 1-.19-2.129c0-.637.05-1.268.151-1.891.1-.624.251-1.218.455-1.784a7.633 7.633 0 0 1 .77-1.57c.31-.482.676-.899 1.096-1.251.42-.353.898-.628 1.434-.828a5.089 5.089 0 0 1 1.786-.298c.381 0 .755.037 1.122.111.367.074.711.183 1.034.327.323.144.619.321.891.531.271.212.504.454.7.727.187.273.314.56.386.859a4.43 4.43 0 0 1 .099 1.325l.638.022c.039-.749.071-1.386.095-1.913.024-.527.037-.957.037-1.288 0-.158-.113-.333-.337-.525-.225-.191-.536-.371-.932-.539a7.804 7.804 0 0 0-1.412-.424 8.615 8.615 0 0 0-1.778-.173c-.929 0-1.78.126-2.552.377-.772.252-1.466.6-2.083 1.043a7.761 7.761 0 0 0-1.617 1.564 9.454 9.454 0 0 0-1.151 1.934c-.306.69-.535 1.414-.689 2.168a11.25 11.25 0 0 0-.231 2.254c0 .776.079 1.514.238 2.211.159.698.385 1.344.679 1.938a7.459 7.459 0 0 0 1.063 1.607c.416.477.88.883 1.393 1.219a6.427 6.427 0 0 0 3.558 1.043c.498 0 .999-.047 1.5-.14.501-.094.999-.248 1.492-.464s.985-.499 1.474-.848a9.74 9.74 0 0 0 1.453-1.302c.039-.052.058-.093.058-.122a.226.226 0 0 0-.047-.13 1.058 1.058 0 0 0-.117-.114zM22.927 42.506a3.771 3.771 0 0 0-1.213-1.025c-.481-.259-1.036-.388-1.661-.388-.558 0-1.074.089-1.548.266a4.77 4.77 0 0 0-1.291.726 5.413 5.413 0 0 0-1.023 1.075c-.296.41-.544.849-.745 1.316a7.57 7.57 0 0 0-.609 2.923c0 .566.084 1.119.253 1.662.168.541.416 1.024.741 1.448.325.425.729.766 1.21 1.025.482.259 1.035.388 1.661.388.558 0 1.073-.088 1.547-.266.474-.177.905-.419 1.291-.726s.728-.665 1.023-1.075a7.14 7.14 0 0 0 .748-1.316c.203-.467.356-.951.458-1.449.103-.499.154-.99.154-1.475a5.55 5.55 0 0 0-.253-1.661 4.577 4.577 0 0 0-.743-1.448zm-.81 4.706a8.012 8.012 0 0 1-.165 1.018 6.506 6.506 0 0 1-.312.996c-.13.321-.293.606-.492.855s-.433.45-.704.601-.585.226-.942.226c-.328 0-.627-.057-.898-.172a2.544 2.544 0 0 1-.733-.475 3.091 3.091 0 0 1-.564-.709 4.866 4.866 0 0 1-.4-.874c-.107-.312-.187-.635-.238-.971s-.077-.666-.077-.992c0-.278.016-.586.047-.924.032-.338.086-.677.165-1.017a6.54 6.54 0 0 1 .312-.993c.13-.321.293-.606.492-.855.198-.25.433-.448.704-.597.271-.148.585-.223.943-.223.327 0 .627.058.898.172.272.115.516.272.733.471.218.199.406.434.565.705.158.271.292.561.399.87.107.309.187.63.238.964.051.333.077.665.077.996-.001.283-.017.592-.048.928zM36.795 50.545c-.274.07-.538.104-.792.104a1.19 1.19 0 0 1-.448-.075.596.596 0 0 1-.293-.28c-.073-.138-.126-.323-.158-.558s-.048-.54-.048-.913c0-.216.009-.469.026-.759a56.732 56.732 0 0 1 .146-1.899 62.7 62.7 0 0 0 .084-.945l.063-.809c.017-.242.025-.435.025-.579 0-.494-.059-.915-.176-1.262a2.416 2.416 0 0 0-.473-.852 1.787 1.787 0 0 0-.679-.481 2.124 2.124 0 0 0-.792-.151c-.396 0-.812.117-1.247.352-.435.235-.873.618-1.313 1.147-.44.529-.872 1.22-1.298 2.071-.425.851-.824 1.895-1.195 3.132l-.044-.007a105.548 105.548 0 0 0 .377-4.508l.041-.665c.01-.176.014-.287.014-.335 0-.402-.079-.686-.238-.852-.159-.166-.38-.248-.664-.248-.117 0-.279.019-.483.058a9.378 9.378 0 0 0-.712.165c-.269.072-.563.157-.883.255-.321.099-.654.208-1.001.327l.109.518c.313-.081.592-.147.836-.194.245-.048.455-.072.63-.072.127 0 .237.017.33.05.093.033.17.09.231.169.062.08.106.186.136.32.029.134.043.299.043.496 0 .216-.003.511-.011.885s-.02.797-.037 1.269-.037.98-.059 1.524a148.124 148.124 0 0 1-.172 3.282 74.51 74.51 0 0 1-.11 1.489l.118.007 1.533-.187c.039-.709.135-1.419.286-2.128.152-.709.342-1.389.572-2.039s.488-1.253.774-1.812a9.757 9.757 0 0 1 .895-1.453c.311-.41.623-.732.936-.966.313-.235.611-.353.894-.353.357 0 .643.133.858.399.215.266.323.679.323 1.24 0 .211-.016.493-.047.845l-.107 1.176a59.38 59.38 0 0 0-.106 1.362c-.032.477-.048.941-.048 1.391 0 .37.011.715.033 1.036.021.321.07.601.146.841.076.24.189.429.341.568.151.139.36.208.624.208.225 0 .484-.037.777-.111.293-.075.588-.171.884-.291.296-.12.578-.252.847-.396.269-.145.491-.285.667-.425l-.139-.374a4.805 4.805 0 0 1-.826.293zM43.763 43.912l.022.072c.225.063.44.093.645.093.22-.004.406-.045.558-.122.151-.077.273-.171.366-.284a1.04 1.04 0 0 0 .198-.364c.04-.128.059-.249.059-.359 0-.287-.077-.546-.231-.776a1.975 1.975 0 0 0-.624-.585 3.136 3.136 0 0 0-.917-.367 4.74 4.74 0 0 0-1.111-.126 5.52 5.52 0 0 0-1.87.335 4.547 4.547 0 0 0-.854.42 3.408 3.408 0 0 0-.705.586 2.627 2.627 0 0 0-.48.751 2.334 2.334 0 0 0-.176.914c0 .307.045.585.136.837.09.252.215.479.374.684.159.204.345.389.557.557.213.167.441.324.686.467.244.144.498.276.759.399.262.122.522.244.781.363.293.139.576.276.847.41.271.134.51.28.715.438.206.158.369.333.492.525.122.192.183.415.183.668 0 .245-.058.465-.173.662a1.584 1.584 0 0 1-.458.497c-.19.133-.411.237-.66.309-.25.072-.509.108-.777.108a3.22 3.22 0 0 1-.869-.122c-.291-.082-.557-.206-.796-.374s-.441-.384-.605-.647a2.149 2.149 0 0 1-.297-.942l-.059-.05a2.343 2.343 0 0 0-.502.068 1.538 1.538 0 0 0-.443.184.983.983 0 0 0-.319.316.878.878 0 0 0-.121.475c0 .215.05.414.15.593.1.179.237.342.41.489.174.146.377.276.609.389.232.112.478.208.737.284a5.74 5.74 0 0 0 1.606.23 5.46 5.46 0 0 0 1.5-.205 4.094 4.094 0 0 0 1.28-.601c.372-.264.668-.587.891-.97.223-.384.334-.823.334-1.316 0-.413-.089-.771-.268-1.075a2.981 2.981 0 0 0-.7-.809 5.354 5.354 0 0 0-.983-.629 37.616 37.616 0 0 0-1.107-.537 33.475 33.475 0 0 1-.958-.459 5.363 5.363 0 0 1-.811-.493 2.43 2.43 0 0 1-.564-.575 1.274 1.274 0 0 1-.063-1.305c.101-.192.245-.363.433-.514.188-.152.419-.273.693-.363.274-.091.584-.137.932-.137.196 0 .395.021.597.064.203.043.388.113.554.208.167.096.305.22.415.37a.965.965 0 0 1 .172.558c0 .11-.015.23-.043.36-.03.128-.079.269-.147.423zM58.874 50.62a2.195 2.195 0 0 1-.58.237 1.295 1.295 0 0 1-.333.043 1.13 1.13 0 0 1-.568-.162c-.188-.107-.356-.304-.502-.589-.146-.285-.266-.676-.359-1.172-.093-.496-.139-1.134-.139-1.916 0-.413.007-.863.022-1.353.015-.489.037-.988.066-1.499.03-.51.063-1.021.099-1.531.037-.511.077-.994.122-1.449l-.118-.008-1.555.188a17.67 17.67 0 0 1-.535 3.404c-.279 1.052-.617 2-1.013 2.844-.396.844-.812 1.485-1.247 1.924-.435.439-.86.658-1.276.658-.366 0-.66-.132-.88-.395-.22-.264-.33-.681-.33-1.252 0-.192.011-.43.033-.715s.049-.599.08-.938l.103-1.082c.037-.381.071-.764.103-1.147.031-.383.059-.761.081-1.132.022-.372.033-.72.033-1.046 0-.216-.014-.408-.041-.576a1.257 1.257 0 0 0-.143-.431.691.691 0 0 0-.271-.273.888.888 0 0 0-.433-.093c-.088 0-.226.017-.414.05-.188.033-.418.083-.69.151-.271.067-.579.153-.924.256-.344.103-.717.224-1.118.363l.109.518c.294-.081.573-.147.84-.194.266-.048.482-.072.648-.072.167 0 .298.024.393.072a.477.477 0 0 1 .217.222c.049.102.08.228.095.381.015.154.022.336.022.547 0 .522-.02 1.051-.059 1.585a83.536 83.536 0 0 1-.128 1.553c-.046.501-.089.973-.128 1.417-.039.443-.059.833-.059 1.168 0 .513.06.944.18 1.294.119.349.28.631.48.845.201.213.429.367.686.46.257.094.525.14.804.14.371 0 .762-.106 1.173-.319.411-.214.82-.57 1.229-1.068.408-.499.807-1.156 1.195-1.971s.749-1.824 1.082-3.027l.081.014a44.63 44.63 0 0 0-.114.896 20.79 20.79 0 0 0-.121 1.427c-.01.21-.015.419-.015.625 0 .642.062 1.179.187 1.611.125.432.29.776.495 1.035.206.259.441.443.708.554s.542.165.825.165c.226 0 .448-.026.667-.079.22-.052.431-.126.631-.219.2-.094.391-.204.572-.331.181-.127.342-.262.484-.406l-.242-.331c-.06.039-.129.082-.21.129zM63.766 50.545a3.04 3.04 0 0 1-.759.104c-.127 0-.237-.013-.33-.04a.516.516 0 0 1-.242-.154.93.93 0 0 1-.173-.331 3 3 0 0 1-.109-.568c-.027-.235-.047-.523-.059-.863s-.018-.748-.018-1.223c0-.757.015-1.548.044-2.373a90.55 90.55 0 0 1 .125-2.52c.053-.856.117-1.725.191-2.607.073-.881.152-1.76.238-2.635.086-.875.176-1.74.271-2.596.095-.856.192-1.691.29-2.506a2.16 2.16 0 0 0-.924-.23c-.127 0-.253.011-.377.036a1.315 1.315 0 0 0-.338.111.705.705 0 0 0-.246.201.525.525 0 0 0-.103.298c-.034.503-.071 1.084-.11 1.741l-.125 2.096a594.385 594.385 0 0 0-.257 4.66 666.192 666.192 0 0 0-.201 4.275 169.7 169.7 0 0 0-.063 1.615 34.988 34.988 0 0 0 .012 2.812c.022.477.073.864.154 1.161.081.297.198.512.352.643.154.132.363.198.627.198.205 0 .449-.037.73-.111.281-.075.568-.171.862-.291a8.64 8.64 0 0 0 .839-.396c.267-.145.488-.285.664-.425l-.14-.374a5.1 5.1 0 0 1-.825.292zM70.733 50.563c-.325.091-.62.137-.884.137-.367 0-.669-.075-.909-.223s-.428-.363-.565-.644a3.356 3.356 0 0 1-.286-1.024c-.054-.403-.081-.86-.081-1.374 0-.273.005-.595.015-.963a50.54 50.54 0 0 1 .136-2.577c.037-.487.082-.987.136-1.5.474.034.91.07 1.309.108s.759.058 1.082.058c.337 0 .595-.031.773-.094s.268-.199.268-.41a.92.92 0 0 0-.022-.187 2.757 2.757 0 0 0-.058-.223 6.246 6.246 0 0 1-1.093.079h-.385c-.155 0-.326-.002-.513-.007l-.609-.014a41.462 41.462 0 0 1-.671-.021 74.76 74.76 0 0 1 .356-2.873c.139-.971.312-1.912.517-2.822a1.479 1.479 0 0 0-.363-.144 1.725 1.725 0 0 0-.738-.022c-.103.019-.198.053-.286.101s-.165.113-.231.194a.71.71 0 0 0-.136.31c-.127.7-.254 1.496-.381 2.387a95.181 95.181 0 0 0-.359 2.84c-.298.02-.572.053-.821.1-.25.048-.463.108-.642.18a1.43 1.43 0 0 0-.418.241c-.101.089-.151.183-.151.284 0 .039.008.072.022.101.235-.058.518-.1.847-.126.33-.026.688-.042 1.075-.046-.049.46-.093.927-.132 1.401-.04.475-.071.949-.096 1.424-.024.475-.044.943-.059 1.406-.014.462-.022.912-.022 1.348 0 .777.055 1.419.165 1.928.11.508.264.912.462 1.211s.433.508.704.625c.271.118.571.176.898.176.25 0 .513-.031.792-.093.279-.063.567-.152.866-.266a8.82 8.82 0 0 0 .909-.414c.308-.16.614-.339.917-.535a.76.76 0 0 0-.228-.475 6.787 6.787 0 0 1-1.11.438zM76.952 50.545a3.04 3.04 0 0 1-.759.104c-.127 0-.241-.012-.341-.036a.535.535 0 0 1-.264-.155.927.927 0 0 1-.191-.338 3.073 3.073 0 0 1-.127-.586 9.285 9.285 0 0 1-.074-.902 33.64 33.64 0 0 1 .003-2.524 43.298 43.298 0 0 1 .436-4.692 1.997 1.997 0 0 0-.924-.223c-.087 0-.184.008-.289.025-.105.017-.205.048-.297.094s-.171.11-.235.194a.61.61 0 0 0-.11.327c-.039.614-.07 1.209-.095 1.787a130.648 130.648 0 0 0-.092 3.105c-.007.453-.011.86-.011 1.219 0 .613.013 1.136.037 1.567s.06.791.106 1.079c.046.288.105.515.176.683.071.167.151.295.242.381a.6.6 0 0 0 .304.162c.113.021.237.032.375.032.205 0 .449-.037.729-.111.281-.075.568-.171.862-.291.293-.12.572-.252.839-.396.266-.145.488-.285.664-.425l-.14-.374a4.857 4.857 0 0 1-.824.294zM75.57 35.718a1.131 1.131 0 0 0-.865-.006 1.184 1.184 0 0 0-.389.251 1.309 1.309 0 0 0-.286.417c-.074.165-.11.355-.11.571 0 .153.024.303.073.449.049.146.12.276.213.388.092.113.205.204.337.273.132.07.284.104.455.104.181 0 .346-.041.495-.122s.276-.189.381-.324a1.584 1.584 0 0 0 .334-.95c0-.158-.025-.305-.077-.442a1.064 1.064 0 0 0-.561-.609zM90.568 50.254a5.035 5.035 0 0 1-.829.291c-.274.07-.538.104-.792.104-.175 0-.325-.025-.447-.075a.596.596 0 0 1-.293-.28 1.695 1.695 0 0 1-.158-.558 7.237 7.237 0 0 1-.047-.913c0-.216.008-.469.025-.759a66.479 66.479 0 0 1 .147-1.899 63.22 63.22 0 0 0 .147-1.754c.017-.243.026-.435.026-.579 0-.494-.059-.915-.176-1.262a2.432 2.432 0 0 0-.473-.852 1.787 1.787 0 0 0-.679-.481 2.124 2.124 0 0 0-.792-.151c-.396 0-.812.117-1.247.352-.435.235-.873.618-1.313 1.147-.44.529-.873 1.22-1.298 2.071s-.824 1.895-1.195 3.132l-.044-.007a105.548 105.548 0 0 0 .378-4.508l.041-.665c.009-.175.014-.287.014-.335 0-.402-.079-.686-.238-.852-.159-.166-.38-.248-.664-.248-.117 0-.279.019-.484.058a9.475 9.475 0 0 0-.711.165c-.269.072-.564.157-.884.255-.321.099-.654.208-1.001.327l.109.518c.313-.081.592-.147.836-.194.245-.048.455-.072.631-.072.127 0 .237.017.33.05a.49.49 0 0 1 .23.169c.062.08.107.186.136.32.029.134.043.299.043.496 0 .216-.003.511-.01.885-.008.374-.02.797-.037 1.269l-.058 1.524a138.869 138.869 0 0 1-.173 3.282 67.727 67.727 0 0 1-.11 1.489l.117.007 1.533-.187c.039-.709.134-1.419.286-2.128s.342-1.389.572-2.039c.229-.649.487-1.253.773-1.812a9.757 9.757 0 0 1 .895-1.453c.311-.41.623-.732.936-.966.313-.235.611-.353.895-.353.357 0 .643.133.858.399.215.266.323.679.323 1.24 0 .211-.016.493-.048.845l-.106 1.176a59.38 59.38 0 0 0-.106 1.362c-.032.477-.047.941-.047 1.391 0 .37.011.715.033 1.036.021.321.07.601.146.841s.189.429.341.568.359.208.624.208c.225 0 .484-.037.777-.111.293-.075.588-.171.884-.291.295-.12.578-.252.847-.396.269-.145.492-.285.667-.425l-.14-.372zM100.96 40.317l-.095.064c.004.038.009.072.011.101a1.344 1.344 0 0 1-.117.672c-.081.17-.189.314-.326.432-.137.117-.296.208-.477.27s-.369.093-.565.093c-.234 0-.441-.035-.619-.104a6.536 6.536 0 0 1-.547-.241 11.084 11.084 0 0 0-.392-.176 4.463 4.463 0 0 0-1.001-.292 3.771 3.771 0 0 0-.645-.05 4.73 4.73 0 0 0-1.76.331 4.717 4.717 0 0 0-1.47.913c-.423.388-.759.85-1.008 1.384a4.064 4.064 0 0 0-.375 1.744 3.427 3.427 0 0 0 1.376 2.769c.296.225.632.409 1.008.553a7.461 7.461 0 0 0-.608.288c-.21.11-.404.24-.58.392a2.072 2.072 0 0 0-.436.518 1.264 1.264 0 0 0-.172.658c0 .216.043.409.128.579s.198.322.337.457c.139.134.295.25.469.349.174.099.351.186.532.263l-.015.036c-.25.072-.507.169-.773.291a6.203 6.203 0 0 0-.785.435c-.257.168-.5.357-.73.568-.23.211-.431.438-.605.683s-.312.508-.414.791a2.542 2.542 0 0 0-.154.884c0 .369.07.698.212.985.142.288.334.541.576.762.242.22.521.409.836.564.315.155.646.283.993.381.348.098.699.17 1.056.216a7.985 7.985 0 0 0 4.13-.554c.464-.199.89-.438 1.276-.716.387-.278.719-.585.998-.92.278-.336.495-.696.649-1.083.154-.385.231-.787.231-1.205 0-.33-.056-.622-.168-.873a2.058 2.058 0 0 0-.469-.662 3.141 3.141 0 0 0-.712-.497 6.115 6.115 0 0 0-.894-.37 11.604 11.604 0 0 0-1.02-.28 56.846 56.846 0 0 0-1.085-.237 98.306 98.306 0 0 1-1.17-.255 6.896 6.896 0 0 1-.986-.291c-.284-.11-.51-.239-.679-.388s-.252-.329-.252-.54c0-.105.029-.21.087-.313.059-.103.142-.2.25-.291.108-.091.232-.17.374-.237.142-.067.299-.118.47-.151.112.014.221.026.326.036a4.259 4.259 0 0 0 1.514-.151 4.584 4.584 0 0 0 1.976-1.169 4.58 4.58 0 0 0 .697-.891c.193-.324.342-.667.447-1.029s.158-.732.158-1.111c0-.364-.049-.724-.146-1.079a3.362 3.362 0 0 0-.521-1.057l.029-.036c.396.134.765.201 1.107.201.226 0 .43-.025.616-.078.186-.054.346-.13.48-.23a1.08 1.08 0 0 0 .312-.363c.073-.142.11-.304.11-.486 0-.23-.082-.459-.246-.687-.166-.227-.417-.417-.754-.57zm-6.483 12.302c.489.12.965.226 1.426.317.462.091.901.192 1.317.302.308.082.591.17.851.266.259.096.483.212.671.349.188.137.336.297.443.482.108.185.161.406.161.665 0 .46-.108.884-.326 1.273-.218.388-.511.725-.88 1.01s-.798.508-1.287.669a4.921 4.921 0 0 1-1.541.241c-.396 0-.796-.053-1.203-.158a3.61 3.61 0 0 1-1.104-.489 2.715 2.715 0 0 1-.806-.83c-.208-.333-.312-.73-.312-1.19 0-.374.069-.719.208-1.035a2.86 2.86 0 0 1 .568-.845c.24-.247.515-.457.826-.629.312-.174.64-.307.988-.398zm3.677-6.655a3.832 3.832 0 0 1-.168.669 3.473 3.473 0 0 1-.29.625 2.16 2.16 0 0 1-.425.521 1.855 1.855 0 0 1-1.283.489 2.271 2.271 0 0 1-1.493-.54 2.806 2.806 0 0 1-.521-.589 3.654 3.654 0 0 1-.37-.72 4.375 4.375 0 0 1-.221-.794 4.608 4.608 0 0 1-.073-.809 4.106 4.106 0 0 1 .223-1.313c.076-.218.174-.424.293-.618.12-.194.265-.366.437-.514a2.02 2.02 0 0 1 .59-.353c.223-.086.473-.129.751-.129.298 0 .57.048.814.144.244.096.462.227.652.393.191.165.358.358.502.579.145.22.263.458.356.711.093.254.163.517.209.787.046.271.069.539.069.802.003.213-.015.432-.052.659zM118.118 49.017c-.11.369-.249.661-.415.877-.166.215-.365.367-.598.453s-.498.129-.795.129c-.425 0-.857-.013-1.294-.04-.438-.026-.908-.04-1.412-.04-.357 0-.743.016-1.159.047-.416.031-.858.08-1.327.147a45.81 45.81 0 0 0 .135-1.697 168.902 168.902 0 0 0 .216-4.293c.029-.767.055-1.514.077-2.24.021-.726.042-1.414.059-2.063a968.058 968.058 0 0 0 .069-2.894l.007-.475c0-.307-.007-.58-.021-.82a1.618 1.618 0 0 0-.143-.607.796.796 0 0 0-.381-.374c-.174-.084-.422-.126-.745-.126-.337 0-.764.043-1.279.129-.516.086-1.133.22-1.852.403l.073.597a9.742 9.742 0 0 1 1.327-.108c.239 0 .432.022.576.068a.664.664 0 0 1 .333.219.81.81 0 0 1 .15.393c.022.16.033.353.033.578 0 .772-.002 1.572-.007 2.402-.005.829-.015 1.67-.03 2.523-.014.854-.036 1.706-.066 2.56a142.78 142.78 0 0 1-.106 2.502c-.042.814-.093 1.6-.154 2.354a47.42 47.42 0 0 1-.216 2.118l.132.015a13.605 13.605 0 0 1 3.052-.36c.499 0 .963.024 1.393.072.43.048.83.102 1.2.162.369.06.709.114 1.022.162s.599.072.858.072c.342 0 .646-.061.913-.184.266-.122.493-.34.678-.655.186-.313.329-.743.429-1.287.1-.544.153-1.238.157-2.082l-.638-.05c-.057.574-.141 1.044-.251 1.413zM130.248 49.017c-.11.369-.249.661-.414.877a1.343 1.343 0 0 1-.599.453 2.278 2.278 0 0 1-.795.129c-.425 0-.857-.013-1.294-.04-.438-.026-.908-.04-1.412-.04-.357 0-.743.016-1.159.047-.416.031-.858.08-1.327.147a45.81 45.81 0 0 0 .135-1.697 168.902 168.902 0 0 0 .216-4.293c.03-.767.055-1.514.077-2.24l.059-2.063.044-1.711a123.764 123.764 0 0 0 .033-1.658c0-.307-.007-.58-.021-.82a1.618 1.618 0 0 0-.143-.607.796.796 0 0 0-.381-.374c-.174-.084-.422-.126-.745-.126-.337 0-.764.043-1.279.129a23.14 23.14 0 0 0-1.853.403l.074.597a9.742 9.742 0 0 1 1.327-.108c.24 0 .432.022.576.068a.664.664 0 0 1 .333.219.81.81 0 0 1 .15.393c.021.16.033.353.033.578 0 .772-.002 1.572-.007 2.402-.005.829-.015 1.67-.029 2.523a156.196 156.196 0 0 1-.172 5.062c-.041.814-.092 1.6-.154 2.354a47.42 47.42 0 0 1-.216 2.118l.132.015a13.587 13.587 0 0 1 3.051-.36c.499 0 .963.024 1.394.072.43.048.83.102 1.199.162.369.06.71.114 1.023.162.313.048.599.072.858.072.342 0 .647-.061.913-.184.267-.122.493-.34.679-.655.186-.313.329-.743.429-1.287.1-.544.152-1.238.157-2.082l-.638-.05c-.06.574-.144 1.044-.254 1.413zM144.765 48.855a.97.97 0 0 0-.143-.097 2.436 2.436 0 0 0-.136-.072 9.42 9.42 0 0 1-1.236.938 8.228 8.228 0 0 1-1.228.647c-.406.17-.806.295-1.199.374-.393.08-.776.119-1.148.119a4.707 4.707 0 0 1-2.863-.953 5.54 5.54 0 0 1-1.118-1.133 7.086 7.086 0 0 1-.852-1.51 9.287 9.287 0 0 1-.542-1.84 11.37 11.37 0 0 1-.19-2.129c0-.637.05-1.268.15-1.891.101-.624.252-1.218.455-1.784a7.633 7.633 0 0 1 .77-1.57 5.53 5.53 0 0 1 1.096-1.251 4.845 4.845 0 0 1 1.434-.828 5.089 5.089 0 0 1 1.786-.298c.381 0 .755.037 1.122.111.367.074.711.183 1.034.327.323.144.62.321.892.531.271.212.505.454.7.727.186.273.314.56.385.859a4.429 4.429 0 0 1 .11 1.135c-.002.06-.006.124-.011.19l.638.022c.039-.749.071-1.386.095-1.913.025-.527.037-.957.037-1.288 0-.158-.112-.333-.337-.525-.225-.191-.536-.371-.932-.539a7.804 7.804 0 0 0-1.412-.424 8.618 8.618 0 0 0-1.779-.173c-.929 0-1.78.126-2.552.377a7.56 7.56 0 0 0-2.083 1.043 7.761 7.761 0 0 0-1.617 1.564c-.462.6-.846 1.244-1.151 1.934s-.536 1.414-.689 2.168a11.25 11.25 0 0 0-.231 2.254c0 .776.08 1.514.238 2.211.159.698.385 1.344.678 1.938A7.463 7.463 0 0 0 134 49.713c.415.477.88.883 1.393 1.219a6.436 6.436 0 0 0 3.556 1.043c.499 0 .999-.047 1.5-.14.5-.094.999-.248 1.492-.464s.985-.499 1.474-.848c.488-.35.973-.785 1.452-1.302.04-.052.059-.093.059-.122a.22.22 0 0 0-.048-.13.808.808 0 0 0-.113-.114zM149.356 49.962c-.054-.141-.13-.264-.228-.367a1.105 1.105 0 0 0-.813-.341 1.254 1.254 0 0 0-1.126.762 1.417 1.417 0 0 0-.114.583c0 .153.026.304.077.453.051.148.125.281.22.396a1.033 1.033 0 0 0 .818.381c.186 0 .355-.042.51-.126.153-.084.286-.193.396-.327a1.529 1.529 0 0 0 .341-.963c0-.159-.027-.309-.081-.451z"/></svg><svg id="wifi" data-name="Layer 1" width="62" height="66" viewBox="-1 -1 62 66" y="128"><defs><style>.kcls-1{fill:#d4953e}</style></defs><title>wifi</title><path class="kcls-1" d="M29.88 0A55.39 55.39 0 0 0 0 8.72l4.22 6.48a47.32 47.32 0 0 1 25.66-7.28 47.31 47.31 0 0 1 25.9 7.28L60 8.72A55.53 55.53 0 0 0 29.88 0zm0 24a31.08 31.08 0 0 0-17 5l4.22 6.72A23.09 23.09 0 0 1 29.8 32a24.17 24.17 0 0 1 13 3.76L47 29a32.37 32.37 0 0 0-17.2-5h.07zm0 24a8 8 0 1 0 8 8 8 8 0 0 0-8-8z"/></svg><svg id="youtube" data-name="Layer 1" width="36.75" height="44" viewBox="-1 -1 36.75 44" x="218" y="132.07999999999998"><defs><style>.lcls-1{fill:#fff}</style></defs><title>youtube</title><path class="lcls-1" d="M22.13 29.15v5q0 1.57-.91 1.57a1.5 1.5 0 0 1-1.06-.52v-7.11a1.5 1.5 0 0 1 1.06-.54q.91 0 .91 1.6zm7.92 0v1.08h-2.1v-1.06q0-1.59 1.06-1.59t1 1.59zM7.42 24h2.5v-2.14h-7.3v2.2h2.46V37.4h2.34V24zm6.75 13.4h2.09V25.82h-2.09v8.86a1.86 1.86 0 0 1-1.31 1 .48.48 0 0 1-.49-.47 6.52 6.52 0 0 1 0-.82v-8.57h-2.14V35a5.79 5.79 0 0 0 .19 1.71 1.26 1.26 0 0 0 1.36.87 3.43 3.43 0 0 0 2.39-1.43v1.25zm10.05-3.47v-4.6A8.33 8.33 0 0 0 24 27a1.63 1.63 0 0 0-1.67-1.31A2.82 2.82 0 0 0 20.16 27v-5.1h-2.08v15.5h2.09v-1.13a2.91 2.91 0 0 0 2.18 1.31A1.62 1.62 0 0 0 24 36.27a8.61 8.61 0 0 0 .22-2.35zm7.92-.24v-.3H30a11.6 11.6 0 0 1 0 1.43.9.9 0 0 1-.94.85q-1.08 0-1.08-1.61V32h4.19v-2.41a4.65 4.65 0 0 0-.66-2.72 3.2 3.2 0 0 0-5 0 4.52 4.52 0 0 0-.66 2.72v4.05a4.4 4.4 0 0 0 .66 2.72 3 3 0 0 0 2.49 1.2 2.9 2.9 0 0 0 3-2.51 10.31 10.31 0 0 0 .09-1.36zM17.89 12.3V7.38q0-1.61-1-1.61t-1 1.61v4.92q0 1.64 1 1.64t1-1.64zm16.85 17.6a40.6 40.6 0 0 1-.61 8.2 4.45 4.45 0 0 1-1.36 2.32 4.1 4.1 0 0 1-2.39 1.08 125.31 125.31 0 0 1-13 .49 125.31 125.31 0 0 1-13-.49A4.15 4.15 0 0 1 2 40.42 4.28 4.28 0 0 1 .63 38.1 39.76 39.76 0 0 1 0 29.9a40.6 40.6 0 0 1 .61-8.2A4.45 4.45 0 0 1 2 19.37a4.25 4.25 0 0 1 2.41-1.1q4.29-.47 13-.47t13 .47a4.4 4.4 0 0 1 3.75 3.42 39.76 39.76 0 0 1 .58 8.21zM11.35 0h2.39l-2.83 9.35v6.35H8.57V9.35a39.68 39.68 0 0 0-1.43-5Q6.27 2 5.61 0H8.1l1.67 6.16zM20 7.8v4.1a4.59 4.59 0 0 1-.66 2.76 2.88 2.88 0 0 1-2.49 1.19 2.9 2.9 0 0 1-2.46-1.19 4.68 4.68 0 0 1-.66-2.76V7.8a4.59 4.59 0 0 1 .66-2.74 2.9 2.9 0 0 1 2.46-1.19 2.88 2.88 0 0 1 2.49 1.19A4.59 4.59 0 0 1 20 7.8zM27.87 4v11.7h-2.13v-1.27a3.37 3.37 0 0 1-2.41 1.45A1.31 1.31 0 0 1 22 15a6 6 0 0 1-.19-1.76V4h2.13v8.6a6.14 6.14 0 0 0 0 .82.49.49 0 0 0 .47.52 1.87 1.87 0 0 0 1.31-1V4h2.16z"/></svg></svg>